<svg xmlns="http://www.w3.org/2000/svg" width="1080" height="1350" viewBox="1080 0 1080 1350"><defs>
 <pattern id="atelier-12-soundtrack-art-6-1-grain" width="437" height="389" patternUnits="userSpaceOnUse"><path d="M413.739 362.837l-0.528 -1.781" stroke="#ffffff" stroke-width="0.509" opacity="0.16"/><path d="M37.939 9.269l0.743 0.585" stroke="#7f684c" stroke-width="0.695" opacity="0.097"/><path d="M144.598 178.338l-2.268 2.117" stroke="#7f684c" stroke-width="0.285" opacity="0.087"/><path d="M192.307 273.925l-1.686 2.85" stroke="#ffffff" stroke-width="0.617" opacity="0.182"/><path d="M369.77 223.284l-0.067 -0.308" stroke="#7f684c" stroke-width="0.182" opacity="0.146"/><path d="M369.646 231.43l-1.064 0.116" stroke="#7f684c" stroke-width="0.327" opacity="0.181"/><path d="M27.617 308.781l-0.403 -0.249" stroke="#ffffff" stroke-width="0.528" opacity="0.1"/><path d="M212.431 365.971l-0.828 -0.723" stroke="#7f684c" stroke-width="0.676" opacity="0.186"/><path d="M275.61 1.685l-1.702 2.118" stroke="#7f684c" stroke-width="0.156" opacity="0.13"/><path d="M259.441 300.732l-1.366 -1.285" stroke="#ffffff" stroke-width="0.436" opacity="0.172"/><path d="M321.733 335.285l-1.483 3.163" stroke="#7f684c" stroke-width="0.372" opacity="0.097"/><path d="M353.29 269.439l-0.616 0.31" stroke="#7f684c" stroke-width="0.626" opacity="0.132"/><path d="M127.11 37.896l-2.658 0.889" stroke="#ffffff" stroke-width="0.501" opacity="0.11"/><path d="M395.545 384.972l0.578 0.318" stroke="#7f684c" stroke-width="0.427" opacity="0.158"/><path d="M195.166 252.975l-0.558 0.304" stroke="#7f684c" stroke-width="0.595" opacity="0.103"/><path d="M274.365 251.762l0.97 -1.694" stroke="#ffffff" stroke-width="0.348" opacity="0.089"/><path d="M133.848 312.617l0.461 0.633" stroke="#7f684c" stroke-width="0.65" opacity="0.101"/><path d="M268.827 9.97l-3.073 -1.289" stroke="#7f684c" stroke-width="0.396" opacity="0.198"/><path d="M408.72 288.536l-1.1 2.362" stroke="#ffffff" stroke-width="0.653" opacity="0.216"/><path d="M284.366 106.683l1.851 3.023" stroke="#7f684c" stroke-width="0.395" opacity="0.097"/><path d="M14.976 78.904l-1.822 -2.436" stroke="#7f684c" stroke-width="0.415" opacity="0.15"/><path d="M315.987 298.596l-0.26 -3.116" stroke="#ffffff" stroke-width="0.376" opacity="0.199"/><path d="M385.656 57.636l0.91 -0.999" stroke="#7f684c" stroke-width="0.482" opacity="0.116"/><path d="M275.197 43.941l-0.106 -1.283" stroke="#7f684c" stroke-width="0.217" opacity="0.186"/><path d="M179.633 241l-1.876 -2.777" stroke="#ffffff" stroke-width="0.635" opacity="0.093"/><path d="M47.794 204.615l-0.229 0.237" stroke="#7f684c" stroke-width="0.572" opacity="0.149"/><path d="M225.142 80.656l2.377 -0.051" stroke="#7f684c" stroke-width="0.259" opacity="0.103"/><path d="M321.972 241.77l0.309 -0.169" stroke="#ffffff" stroke-width="0.689" opacity="0.191"/><path d="M421.922 311.471l-0.64 -3.332" stroke="#7f684c" stroke-width="0.69" opacity="0.148"/><path d="M28.385 356.335l0.51 -1.751" stroke="#7f684c" stroke-width="0.398" opacity="0.148"/><path d="M230.255 210.739l0.487 1.082" stroke="#ffffff" stroke-width="0.344" opacity="0.205"/><path d="M327.104 229.205l-0.447 0.073" stroke="#7f684c" stroke-width="0.478" opacity="0.209"/><path d="M63.444 60.655l-0.686 0.987" stroke="#7f684c" stroke-width="0.59" opacity="0.12"/><path d="M276.639 117.083l-0.255 -0.363" stroke="#ffffff" stroke-width="0.162" opacity="0.096"/><path d="M135.55 31.144l-0.378 -2.384" stroke="#7f684c" stroke-width="0.288" opacity="0.115"/><path d="M19.447 43.211l0.22 1.651" stroke="#7f684c" stroke-width="0.57" opacity="0.156"/><path d="M417.398 23.429l1.755 -0.761" stroke="#ffffff" stroke-width="0.48" opacity="0.163"/><path d="M333.596 310.475l2.129 -0.209" stroke="#7f684c" stroke-width="0.448" opacity="0.166"/><path d="M219.192 54.917l1.897 -2.934" stroke="#7f684c" stroke-width="0.219" opacity="0.133"/><path d="M182.508 48.614l3.346 1.44" stroke="#ffffff" stroke-width="0.431" opacity="0.094"/><path d="M397.245 85.286l-3.184 -0.541" stroke="#7f684c" stroke-width="0.325" opacity="0.139"/><path d="M121.953 329.516l-1.749 -1.58" stroke="#7f684c" stroke-width="0.286" opacity="0.088"/><path d="M366.651 225.872l-0.565 -0.262" stroke="#ffffff" stroke-width="0.193" opacity="0.143"/><path d="M304.716 198.85l0.435 1.596" stroke="#7f684c" stroke-width="0.67" opacity="0.09"/><path d="M127.931 37.718l-2.124 2.39" stroke="#7f684c" stroke-width="0.311" opacity="0.113"/><path d="M286.612 132.496l2.181 -2.653" stroke="#ffffff" stroke-width="0.185" opacity="0.198"/><path d="M144.952 388.89l-3.427 0.374" stroke="#7f684c" stroke-width="0.275" opacity="0.152"/><path d="M80.759 293.527l1.676 -2.765" stroke="#7f684c" stroke-width="0.652" opacity="0.141"/><path d="M323.673 157.924l-0.403 3.065" stroke="#ffffff" stroke-width="0.318" opacity="0.153"/><path d="M268.3 123.714l-1.581 -0.219" stroke="#7f684c" stroke-width="0.647" opacity="0.181"/><path d="M324.5 6.52l0.106 0.644" stroke="#7f684c" stroke-width="0.229" opacity="0.126"/><path d="M393.978 65.799l0.837 0.026" stroke="#ffffff" stroke-width="0.402" opacity="0.19"/><path d="M54.313 256.82l0.888 -1.812" stroke="#7f684c" stroke-width="0.671" opacity="0.142"/><path d="M228.244 86.005l0.105 1.377" stroke="#7f684c" stroke-width="0.588" opacity="0.139"/><path d="M167.455 233.907l1.248 -1.907" stroke="#ffffff" stroke-width="0.497" opacity="0.122"/><path d="M283.826 266.546l1.7 -1.862" stroke="#7f684c" stroke-width="0.209" opacity="0.208"/><path d="M329.225 307.365l-2.332 2.784" stroke="#7f684c" stroke-width="0.304" opacity="0.16"/><path d="M268.913 277.08l2.42 1.881" stroke="#ffffff" stroke-width="0.599" opacity="0.186"/><path d="M96.681 183.017l2.223 -0.703" stroke="#7f684c" stroke-width="0.585" opacity="0.148"/><path d="M386.393 77.38l0.158 1.616" stroke="#7f684c" stroke-width="0.676" opacity="0.083"/><path d="M388.793 319.2l0.264 -0.921" stroke="#ffffff" stroke-width="0.604" opacity="0.165"/><path d="M9.816 21.681l-0.33 -0.38" stroke="#7f684c" stroke-width="0.614" opacity="0.139"/><path d="M131.247 213.185l-0.391 -1.049" stroke="#7f684c" stroke-width="0.379" opacity="0.168"/><path d="M174.985 188.448l-0.927 0.519" stroke="#ffffff" stroke-width="0.472" opacity="0.149"/><path d="M250.446 237.601l0.081 0.526" stroke="#7f684c" stroke-width="0.62" opacity="0.117"/><path d="M266.374 23.549l2.956 0.433" stroke="#7f684c" stroke-width="0.212" opacity="0.111"/><path d="M206.5 188.974l-2.284 -0.278" stroke="#ffffff" stroke-width="0.531" opacity="0.118"/><path d="M362.773 260.061l-0.385 0.231" stroke="#7f684c" stroke-width="0.568" opacity="0.106"/><path d="M332.26 255.741l-0.635 0.568" stroke="#7f684c" stroke-width="0.15" opacity="0.098"/><path d="M276.844 228.203l-0.712 -2.819" stroke="#ffffff" stroke-width="0.474" opacity="0.213"/><path d="M193.69 96.342l0.32 -1.603" stroke="#7f684c" stroke-width="0.265" opacity="0.214"/><path d="M416.503 104.124l-0.283 0.293" stroke="#7f684c" stroke-width="0.685" opacity="0.126"/><path d="M339.117 373.265l2.368 -2.355" stroke="#ffffff" stroke-width="0.244" opacity="0.171"/><path d="M91.309 238.531l-0.35 1.396" stroke="#7f684c" stroke-width="0.236" opacity="0.191"/><path d="M56.169 294.127l0.95 1.106" stroke="#7f684c" stroke-width="0.306" opacity="0.14"/><path d="M358.266 306.391l-0.255 0.182" stroke="#ffffff" stroke-width="0.58" opacity="0.216"/><path d="M33.432 368.182l0.05 1.42" stroke="#7f684c" stroke-width="0.584" opacity="0.098"/><path d="M256.731 338.196l-0.153 -0.397" stroke="#7f684c" stroke-width="0.489" opacity="0.122"/><path d="M142.143 233.839l0.29 -3.248" stroke="#ffffff" stroke-width="0.486" opacity="0.219"/><path d="M300.33 344.518l-1.455 -2.67" stroke="#7f684c" stroke-width="0.68" opacity="0.216"/><path d="M142.441 182.063l1.16 -1.763" stroke="#7f684c" stroke-width="0.334" opacity="0.197"/><path d="M109.067 10.848l-0.32 -1.25" stroke="#ffffff" stroke-width="0.421" opacity="0.21"/><path d="M302.995 315.77l-1.719 1.355" stroke="#7f684c" stroke-width="0.26" opacity="0.194"/><path d="M335.042 36.942l1.449 -2.534" stroke="#7f684c" stroke-width="0.413" opacity="0.159"/><path d="M343.045 329.558l-1.898 -0.235" stroke="#ffffff" stroke-width="0.259" opacity="0.098"/><path d="M353.449 179.162l0.325 -0.675" stroke="#7f684c" stroke-width="0.514" opacity="0.102"/><path d="M22.158 268.412l0.266 0.356" stroke="#7f684c" stroke-width="0.506" opacity="0.137"/><path d="M342.782 43.562l0.029 -1.114" stroke="#ffffff" stroke-width="0.289" opacity="0.151"/><path d="M5.231 387.216l1.515 1.367" stroke="#7f684c" stroke-width="0.62" opacity="0.174"/><path d="M318.417 216.671l-0.155 0.304" stroke="#7f684c" stroke-width="0.578" opacity="0.094"/><path d="M428.567 275.193l0.726 2.087" stroke="#ffffff" stroke-width="0.541" opacity="0.09"/><path d="M154.986 251.241l-0.748 -0.303" stroke="#7f684c" stroke-width="0.574" opacity="0.188"/><path d="M383.038 229.633l0.322 -1.705" stroke="#7f684c" stroke-width="0.341" opacity="0.181"/><path d="M372.23 235.424l0.707 -2.471" stroke="#ffffff" stroke-width="0.446" opacity="0.191"/><path d="M328.659 180.517l0.595 3.63" stroke="#7f684c" stroke-width="0.259" opacity="0.148"/><path d="M72.232 323.115l2.593 -0.052" stroke="#7f684c" stroke-width="0.414" opacity="0.19"/><path d="M387.099 122.894l0.27 0.154" stroke="#ffffff" stroke-width="0.195" opacity="0.142"/><path d="M324.226 91.454l0.248 -0.386" stroke="#7f684c" stroke-width="0.547" opacity="0.21"/><path d="M240.944 276.123l-0.532 -1.929" stroke="#7f684c" stroke-width="0.242" opacity="0.124"/><path d="M426.381 77.714l2.926 1.912" stroke="#ffffff" stroke-width="0.15" opacity="0.118"/><path d="M359.741 64.342l1.064 -0.278" stroke="#7f684c" stroke-width="0.66" opacity="0.122"/><path d="M366.251 165.056l0.474 1.227" stroke="#7f684c" stroke-width="0.195" opacity="0.114"/><path d="M12.136 166.759l2.738 0.153" stroke="#ffffff" stroke-width="0.391" opacity="0.2"/><path d="M186.795 86.901l1.82 2.365" stroke="#7f684c" stroke-width="0.24" opacity="0.165"/><path d="M305.642 313.653l-0.31 0.084" stroke="#7f684c" stroke-width="0.504" opacity="0.155"/><path d="M184.153 25.879l2.793 1.377" stroke="#ffffff" stroke-width="0.161" opacity="0.137"/><path d="M65.843 383.158l-0.383 2.013" stroke="#7f684c" stroke-width="0.385" opacity="0.197"/><path d="M291.598 158.617l2.393 0.326" stroke="#7f684c" stroke-width="0.618" opacity="0.188"/><path d="M7.064 3.224l-0.461 1.588" stroke="#ffffff" stroke-width="0.488" opacity="0.177"/><path d="M172.326 39.828l1.466 -0.833" stroke="#7f684c" stroke-width="0.199" opacity="0.151"/><path d="M165.828 129.338l0.578 1.204" stroke="#7f684c" stroke-width="0.3" opacity="0.101"/><path d="M342.018 372.445l0.04 -1.277" stroke="#ffffff" stroke-width="0.503" opacity="0.202"/><path d="M149.63 51.877l0.237 2.113" stroke="#7f684c" stroke-width="0.638" opacity="0.104"/><path d="M381.335 82.785l-1.091 1.062" stroke="#7f684c" stroke-width="0.315" opacity="0.09"/><path d="M63.824 111.205l-2.792 2.073" stroke="#ffffff" stroke-width="0.316" opacity="0.188"/><path d="M21.78 388.978l-0.446 0.073" stroke="#7f684c" stroke-width="0.311" opacity="0.106"/><path d="M88.683 267.866l-0.023 0.318" stroke="#7f684c" stroke-width="0.441" opacity="0.205"/><path d="M257.587 29.136l-1.855 -2.35" stroke="#ffffff" stroke-width="0.287" opacity="0.178"/><path d="M283.916 332.479l0.716 0.044" stroke="#7f684c" stroke-width="0.578" opacity="0.174"/><path d="M434.566 145.011l-1.572 -1.658" stroke="#7f684c" stroke-width="0.153" opacity="0.194"/><path d="M122.193 366.211l-2.472 -1.829" stroke="#ffffff" stroke-width="0.319" opacity="0.084"/><path d="M49.074 70.113l2.803 1.884" stroke="#7f684c" stroke-width="0.177" opacity="0.107"/><path d="M421.482 248.919l-1.425 -1.241" stroke="#7f684c" stroke-width="0.694" opacity="0.192"/><path d="M115.535 378.533l-0.654 -0.172" stroke="#ffffff" stroke-width="0.438" opacity="0.199"/><path d="M404.23 232.331l-3.523 -0.237" stroke="#7f684c" stroke-width="0.512" opacity="0.183"/><path d="M381.176 83.947l0.116 1.495" stroke="#7f684c" stroke-width="0.196" opacity="0.121"/><path d="M200.702 113.874l-0.133 0.32" stroke="#ffffff" stroke-width="0.498" opacity="0.1"/><path d="M137.909 260.541l-0.068 1.974" stroke="#7f684c" stroke-width="0.171" opacity="0.102"/><path d="M432.008 210l1.548 -1.011" stroke="#7f684c" stroke-width="0.697" opacity="0.081"/><path d="M2.524 2.838l2.572 -0.303" stroke="#ffffff" stroke-width="0.457" opacity="0.215"/><path d="M231.627 14.138l-1.597 0.168" stroke="#7f684c" stroke-width="0.432" opacity="0.196"/><path d="M397.618 302.663l-0.408 -1.846" stroke="#7f684c" stroke-width="0.645" opacity="0.176"/><path d="M417.476 246.606l0.248 -0.628" stroke="#ffffff" stroke-width="0.315" opacity="0.159"/><path d="M3.931 9.731l0.796 2.84" stroke="#7f684c" stroke-width="0.637" opacity="0.116"/><path d="M281.806 97.119l-1.341 1.363" stroke="#7f684c" stroke-width="0.46" opacity="0.127"/><path d="M186.01 37.59l0.149 3.411" stroke="#ffffff" stroke-width="0.234" opacity="0.126"/><path d="M173.488 229.73l-2.209 -1.166" stroke="#7f684c" stroke-width="0.185" opacity="0.197"/><path d="M89.379 175.909l-1.145 -1.673" stroke="#7f684c" stroke-width="0.623" opacity="0.178"/><path d="M306.482 44.324l-2.698 -0.081" stroke="#ffffff" stroke-width="0.238" opacity="0.175"/><path d="M428.622 197.331l-0.476 0.831" stroke="#7f684c" stroke-width="0.631" opacity="0.135"/><path d="M321.523 348.032l2.103 -0.307" stroke="#7f684c" stroke-width="0.425" opacity="0.213"/><path d="M9.073 317.4l0.751 0.824" stroke="#ffffff" stroke-width="0.512" opacity="0.119"/><path d="M304.346 125.151l2.43 -2.05" stroke="#7f684c" stroke-width="0.576" opacity="0.189"/><path d="M161.014 53.266l0.146 -2.094" stroke="#7f684c" stroke-width="0.332" opacity="0.165"/><path d="M139.971 309.457l1.389 0.5" stroke="#ffffff" stroke-width="0.206" opacity="0.196"/><path d="M36.56 70.187l2.227 0.309" stroke="#7f684c" stroke-width="0.512" opacity="0.219"/><path d="M309.86 329.998l1.529 0.574" stroke="#7f684c" stroke-width="0.654" opacity="0.188"/><path d="M351.664 32.024l1.942 0.071" stroke="#ffffff" stroke-width="0.668" opacity="0.172"/><path d="M355.988 139.743l1.05 -2.246" stroke="#7f684c" stroke-width="0.419" opacity="0.128"/><path d="M52.898 351.247l0.407 0.335" stroke="#7f684c" stroke-width="0.177" opacity="0.211"/><path d="M85.13 305.683l1.654 -1.16" stroke="#ffffff" stroke-width="0.368" opacity="0.146"/><path d="M213.932 271.166l1.876 -0.283" stroke="#7f684c" stroke-width="0.183" opacity="0.13"/><path d="M392.902 227.253l-0.073 -1.885" stroke="#7f684c" stroke-width="0.474" opacity="0.153"/><path d="M296.904 370.382l-0.075 -0.435" stroke="#ffffff" stroke-width="0.301" opacity="0.212"/><path d="M259.358 93.177l-1.077 1.801" stroke="#7f684c" stroke-width="0.648" opacity="0.196"/><path d="M428.074 171.683l1.341 0.561" stroke="#7f684c" stroke-width="0.46" opacity="0.124"/><path d="M124.193 225.107l1.437 0.701" stroke="#ffffff" stroke-width="0.214" opacity="0.193"/><path d="M285.455 306.882l0.736 1.66" stroke="#7f684c" stroke-width="0.307" opacity="0.201"/><path d="M108.842 111.647l-0.008 -0.456" stroke="#7f684c" stroke-width="0.648" opacity="0.152"/><path d="M163.333 114.311l-0.386 0.026" stroke="#ffffff" stroke-width="0.296" opacity="0.107"/><path d="M16.026 311.639l0.477 -0.175" stroke="#7f684c" stroke-width="0.347" opacity="0.136"/><path d="M273.851 314.987l-2.698 -1.223" stroke="#7f684c" stroke-width="0.471" opacity="0.123"/><path d="M280.544 388.814l-0.536 1.984" stroke="#ffffff" stroke-width="0.604" opacity="0.154"/><path d="M136.08 282.648l1.165 -0.1" stroke="#7f684c" stroke-width="0.216" opacity="0.154"/><path d="M95.352 141.159l-0.914 1.603" stroke="#7f684c" stroke-width="0.312" opacity="0.172"/><path d="M12.244 137.17l0.147 -0.631" stroke="#ffffff" stroke-width="0.215" opacity="0.22"/><path d="M408.228 204.625l1.87 -0.275" stroke="#7f684c" stroke-width="0.469" opacity="0.2"/><path d="M342.027 94.091l0.199 -1.374" stroke="#7f684c" stroke-width="0.292" opacity="0.1"/><path d="M365.572 153.026l0.477 -1.987" stroke="#ffffff" stroke-width="0.156" opacity="0.158"/><path d="M42.129 103.223l0.465 -0.086" stroke="#7f684c" stroke-width="0.671" opacity="0.179"/><path d="M361.142 93.233l-1.055 -0.485" stroke="#7f684c" stroke-width="0.365" opacity="0.113"/><path d="M328.497 183.588l1.989 -2.741" stroke="#ffffff" stroke-width="0.607" opacity="0.084"/><path d="M47.758 182.041l1.917 0.017" stroke="#7f684c" stroke-width="0.387" opacity="0.106"/><path d="M288.897 14.168l1.628 3.282" stroke="#7f684c" stroke-width="0.566" opacity="0.178"/><path d="M318.286 368.293l-0.55 1.45" stroke="#ffffff" stroke-width="0.661" opacity="0.212"/><path d="M258.757 327.194l-0.237 -0.195" stroke="#7f684c" stroke-width="0.514" opacity="0.205"/><path d="M17.443 38.146l1.213 2.465" stroke="#7f684c" stroke-width="0.352" opacity="0.133"/><path d="M320.447 189.968l-0.685 0.545" stroke="#ffffff" stroke-width="0.234" opacity="0.193"/><path d="M105.22 61.569l-1.318 0.531" stroke="#7f684c" stroke-width="0.57" opacity="0.172"/><path d="M146.416 307.446l0.084 -3.154" stroke="#7f684c" stroke-width="0.541" opacity="0.112"/><path d="M133.969 110.439l0.177 0.87" stroke="#ffffff" stroke-width="0.629" opacity="0.126"/><path d="M397.867 13.063l2.536 -2.573" stroke="#7f684c" stroke-width="0.592" opacity="0.219"/><path d="M415.453 164.853l-0.682 -0.24" stroke="#7f684c" stroke-width="0.219" opacity="0.137"/><path d="M318.882 219.549l-3.411 -0.63" stroke="#ffffff" stroke-width="0.347" opacity="0.209"/><path d="M202.402 50.498l-0.216 -1.254" stroke="#7f684c" stroke-width="0.648" opacity="0.119"/><path d="M259.174 191.703l0.157 -1.042" stroke="#7f684c" stroke-width="0.346" opacity="0.154"/><path d="M235.38 283.201l-0.043 -1.013" stroke="#ffffff" stroke-width="0.694" opacity="0.156"/><path d="M50.887 218.372l-0.085 0.805" stroke="#7f684c" stroke-width="0.422" opacity="0.146"/><path d="M198 203.021l0.675 -2.142" stroke="#7f684c" stroke-width="0.33" opacity="0.129"/><path d="M6.116 185.11l1.697 1.231" stroke="#ffffff" stroke-width="0.258" opacity="0.18"/><path d="M86.791 369.474l-0.541 -0.239" stroke="#7f684c" stroke-width="0.4" opacity="0.19"/><path d="M49.068 95.261l0.096 3.255" stroke="#7f684c" stroke-width="0.381" opacity="0.181"/><path d="M190.259 337.778l-1.124 -2.455" stroke="#ffffff" stroke-width="0.253" opacity="0.124"/><path d="M35.037 126.441l2.77 -0.462" stroke="#7f684c" stroke-width="0.155" opacity="0.106"/><path d="M161.941 149.197l0.808 -1.537" stroke="#7f684c" stroke-width="0.396" opacity="0.131"/><path d="M47.614 240.66l0.572 -0.715" stroke="#ffffff" stroke-width="0.466" opacity="0.106"/><path d="M403.505 350.873l0.424 0.825" stroke="#7f684c" stroke-width="0.33" opacity="0.157"/><path d="M11.804 241.568l0.402 1.651" stroke="#7f684c" stroke-width="0.229" opacity="0.182"/><path d="M343.177 125.729l1.392 2.513" stroke="#ffffff" stroke-width="0.558" opacity="0.104"/><path d="M254.974 102.55l0.704 0.474" stroke="#7f684c" stroke-width="0.177" opacity="0.214"/><path d="M103.06 212.321l1.702 -1.366" stroke="#7f684c" stroke-width="0.319" opacity="0.212"/><path d="M386.799 97.67l0.402 1.543" stroke="#ffffff" stroke-width="0.594" opacity="0.181"/><path d="M359.132 275.744l-2.81 0.389" stroke="#7f684c" stroke-width="0.301" opacity="0.083"/><path d="M96.632 364.69l-0.526 0.852" stroke="#7f684c" stroke-width="0.67" opacity="0.094"/><path d="M113.967 326.938l-0.445 0.848" stroke="#ffffff" stroke-width="0.502" opacity="0.212"/><path d="M331.971 15.639l0.944 1.206" stroke="#7f684c" stroke-width="0.182" opacity="0.093"/><path d="M77.486 325.029l2.978 2.125" stroke="#7f684c" stroke-width="0.587" opacity="0.21"/><path d="M371.939 286.687l-1.729 0.311" stroke="#ffffff" stroke-width="0.434" opacity="0.176"/><path d="M232.275 363.538l-0.561 -2.514" stroke="#7f684c" stroke-width="0.329" opacity="0.17"/><path d="M402.952 367.291l-2.456 0.153" stroke="#7f684c" stroke-width="0.492" opacity="0.202"/><path d="M371.276 48.588l1.084 -1.253" stroke="#ffffff" stroke-width="0.594" opacity="0.15"/><path d="M85.006 319.86l-0.206 0.664" stroke="#7f684c" stroke-width="0.228" opacity="0.133"/><path d="M268.889 53.453l-0.344 -2.462" stroke="#7f684c" stroke-width="0.547" opacity="0.21"/><path d="M312.233 313.404l1.629 -2.477" stroke="#ffffff" stroke-width="0.427" opacity="0.117"/><path d="M188.785 373.066l0.783 -0.324" stroke="#7f684c" stroke-width="0.613" opacity="0.129"/><path d="M185.67 273.932l-0.152 1.155" stroke="#7f684c" stroke-width="0.204" opacity="0.154"/><path d="M355.983 13.351l1.451 -0.305" stroke="#ffffff" stroke-width="0.538" opacity="0.174"/><path d="M116.404 261.552l1.852 0.712" stroke="#7f684c" stroke-width="0.39" opacity="0.13"/><path d="M314.978 224.475l-1.043 0.206" stroke="#7f684c" stroke-width="0.163" opacity="0.162"/><path d="M236.509 36.526l-0.645 -0.175" stroke="#ffffff" stroke-width="0.239" opacity="0.203"/><path d="M78.974 258.385l-0.395 2.394" stroke="#7f684c" stroke-width="0.234" opacity="0.082"/><path d="M10.46 263.763l-0.502 -1.693" stroke="#7f684c" stroke-width="0.217" opacity="0.12"/><path d="M277.514 13.247l1.483 0.561" stroke="#ffffff" stroke-width="0.681" opacity="0.133"/><path d="M241.931 122.474l-1.363 2.964" stroke="#7f684c" stroke-width="0.155" opacity="0.197"/><path d="M367.06 295.634l1.348 -1.592" stroke="#7f684c" stroke-width="0.561" opacity="0.177"/><path d="M40.164 188.986l0.363 -0.724" stroke="#ffffff" stroke-width="0.31" opacity="0.091"/><path d="M196.312 86.584l3.217 0.696" stroke="#7f684c" stroke-width="0.684" opacity="0.157"/><path d="M210.316 107.942l-1.538 -0.295" stroke="#7f684c" stroke-width="0.384" opacity="0.118"/><path d="M276.319 19.873l0.197 1.88" stroke="#ffffff" stroke-width="0.189" opacity="0.144"/><path d="M169.472 114.37l0.639 0.052" stroke="#7f684c" stroke-width="0.468" opacity="0.214"/><path d="M147.679 372.132l-2.377 -0.792" stroke="#7f684c" stroke-width="0.449" opacity="0.118"/><path d="M71.228 6.364l1.254 -2.928" stroke="#ffffff" stroke-width="0.341" opacity="0.209"/><path d="M27.37 244.647l3.38 -1.204" stroke="#7f684c" stroke-width="0.169" opacity="0.15"/><path d="M266.031 157.352l0.875 -2.436" stroke="#7f684c" stroke-width="0.265" opacity="0.12"/><path d="M102.01 45.964l-0.378 0.023" stroke="#ffffff" stroke-width="0.269" opacity="0.192"/><path d="M384.687 307.192l1.1 -2.735" stroke="#7f684c" stroke-width="0.532" opacity="0.121"/><path d="M246.599 145.66l1.755 2.945" stroke="#7f684c" stroke-width="0.485" opacity="0.219"/><path d="M4.722 137.57l-0.985 0.953" stroke="#ffffff" stroke-width="0.423" opacity="0.083"/><path d="M435.036 336.873l0.256 0.499" stroke="#7f684c" stroke-width="0.527" opacity="0.121"/><path d="M346.499 288.455l0.329 -2.934" stroke="#7f684c" stroke-width="0.165" opacity="0.109"/><path d="M32.947 174.475l1.801 0.409" stroke="#ffffff" stroke-width="0.626" opacity="0.176"/><path d="M0.283 235.569l-2.509 -1.027" stroke="#7f684c" stroke-width="0.23" opacity="0.189"/><path d="M390.648 352.978l1.623 -1.175" stroke="#7f684c" stroke-width="0.299" opacity="0.169"/><path d="M81.657 49.132l-2.166 0.516" stroke="#ffffff" stroke-width="0.16" opacity="0.201"/><path d="M405.257 328.533l1.02 -1.054" stroke="#7f684c" stroke-width="0.336" opacity="0.151"/><path d="M235.982 314.34l0.164 0.303" stroke="#7f684c" stroke-width="0.365" opacity="0.135"/><path d="M176.277 323.648l-0.088 0.455" stroke="#ffffff" stroke-width="0.518" opacity="0.137"/><path d="M233.798 37.339l-3.303 1.438" stroke="#7f684c" stroke-width="0.546" opacity="0.143"/><path d="M20.188 1.469l2.023 2.996" stroke="#7f684c" stroke-width="0.53" opacity="0.127"/><path d="M158.361 237.655l-0.554 -0.646" stroke="#ffffff" stroke-width="0.654" opacity="0.094"/><path d="M135.836 197.732l-1.671 1.309" stroke="#7f684c" stroke-width="0.17" opacity="0.2"/><path d="M161.724 19.326l-0.396 -0.073" stroke="#7f684c" stroke-width="0.519" opacity="0.128"/><path d="M203.688 191.761l-1.767 2.84" stroke="#ffffff" stroke-width="0.535" opacity="0.18"/><path d="M1.036 18.224l1.073 -0.243" stroke="#7f684c" stroke-width="0.488" opacity="0.12"/><path d="M59.225 211.103l0.094 -1.72" stroke="#7f684c" stroke-width="0.357" opacity="0.215"/><path d="M423.987 212.287l0.024 -0.734" stroke="#ffffff" stroke-width="0.583" opacity="0.203"/><path d="M68.035 289.676l-3.339 0.505" stroke="#7f684c" stroke-width="0.453" opacity="0.181"/><path d="M278.562 184.662l3.294 -0.164" stroke="#7f684c" stroke-width="0.228" opacity="0.18"/><path d="M376.402 311.519l2.683 2.103" stroke="#ffffff" stroke-width="0.282" opacity="0.154"/><path d="M374.534 301.983l-0.968 0.269" stroke="#7f684c" stroke-width="0.198" opacity="0.172"/><path d="M68.431 334.533l-1.524 -2.29" stroke="#7f684c" stroke-width="0.395" opacity="0.2"/><path d="M324.362 33.269l3.005 -0.59" stroke="#ffffff" stroke-width="0.31" opacity="0.142"/><path d="M429.012 385.787l2.647 -0.452" stroke="#7f684c" stroke-width="0.556" opacity="0.133"/><path d="M46.419 235.181l0.116 -0.424" stroke="#7f684c" stroke-width="0.271" opacity="0.141"/><path d="M15.168 184.282l-0.007 0.985" stroke="#ffffff" stroke-width="0.435" opacity="0.218"/><path d="M242.718 377.62l-1.408 0.505" stroke="#7f684c" stroke-width="0.248" opacity="0.106"/><path d="M374.582 122.253l0.678 0.573" stroke="#7f684c" stroke-width="0.628" opacity="0.164"/><path d="M205.57 63.897l-2.174 -0.47" stroke="#ffffff" stroke-width="0.591" opacity="0.156"/><path d="M281.352 265.392l0.749 -0.128" stroke="#7f684c" stroke-width="0.19" opacity="0.134"/><path d="M156.823 292.968l-0.473 0.091" stroke="#7f684c" stroke-width="0.285" opacity="0.124"/><path d="M168.274 64.589l-0.373 -1.105" stroke="#ffffff" stroke-width="0.239" opacity="0.196"/><path d="M137.629 8.458l0.604 1.09" stroke="#7f684c" stroke-width="0.467" opacity="0.209"/><path d="M88.189 13.051l0.051 -2.298" stroke="#7f684c" stroke-width="0.22" opacity="0.194"/><path d="M248.894 303.465l1.234 0.991" stroke="#ffffff" stroke-width="0.184" opacity="0.135"/><path d="M429.206 355.908l-2.02 2.186" stroke="#7f684c" stroke-width="0.489" opacity="0.169"/><path d="M159.841 350.378l-1.23 2.354" stroke="#7f684c" stroke-width="0.359" opacity="0.175"/><path d="M296.835 225.678l-2.731 1.411" stroke="#ffffff" stroke-width="0.296" opacity="0.172"/><path d="M281.353 342.19l-0.152 1.759" stroke="#7f684c" stroke-width="0.676" opacity="0.115"/><path d="M384.332 285.177l1.771 0.665" stroke="#7f684c" stroke-width="0.688" opacity="0.212"/><path d="M118.02 377.041l-3.246 -0.086" stroke="#ffffff" stroke-width="0.657" opacity="0.11"/><path d="M218.809 386.755l0.595 2.757" stroke="#7f684c" stroke-width="0.599" opacity="0.1"/><path d="M347.065 263.986l1.284 -2.627" stroke="#7f684c" stroke-width="0.394" opacity="0.175"/><path d="M318.887 191.955l-0.886 -1.234" stroke="#ffffff" stroke-width="0.319" opacity="0.15"/><path d="M423.566 268.199l2.697 2.435" stroke="#7f684c" stroke-width="0.354" opacity="0.209"/><path d="M243.966 289.96l3.294 1.591" stroke="#7f684c" stroke-width="0.33" opacity="0.165"/><path d="M226.644 188.123l0.993 0.715" stroke="#ffffff" stroke-width="0.414" opacity="0.17"/><path d="M230.387 283.434l-3.417 0.909" stroke="#7f684c" stroke-width="0.629" opacity="0.146"/><path d="M386.55 89.283l2.17 -2.935" stroke="#7f684c" stroke-width="0.57" opacity="0.141"/><path d="M235.038 132.62l0.184 -1.927" stroke="#ffffff" stroke-width="0.351" opacity="0.198"/><path d="M411.812 281.756l-0.364 -0.273" stroke="#7f684c" stroke-width="0.436" opacity="0.091"/><path d="M367.207 253.799l-3.019 0.24" stroke="#7f684c" stroke-width="0.339" opacity="0.082"/><path d="M399.864 170.526l-0.729 1.155" stroke="#ffffff" stroke-width="0.273" opacity="0.145"/><path d="M243.727 244.476l1.295 -1.993" stroke="#7f684c" stroke-width="0.493" opacity="0.145"/><path d="M424.835 373.211l1.371 1.167" stroke="#7f684c" stroke-width="0.367" opacity="0.108"/><path d="M155.702 94.897l-2.686 -0.619" stroke="#ffffff" stroke-width="0.326" opacity="0.219"/><path d="M108.422 148.899l1.628 1.903" stroke="#7f684c" stroke-width="0.692" opacity="0.101"/><path d="M52.372 62.758l-2.295 2.706" stroke="#7f684c" stroke-width="0.334" opacity="0.135"/><path d="M115.005 173.072l0.562 0.249" stroke="#ffffff" stroke-width="0.692" opacity="0.147"/><path d="M322.906 153.219l1.718 1.238" stroke="#7f684c" stroke-width="0.228" opacity="0.175"/><path d="M429.441 173.858l2.852 0.388" stroke="#7f684c" stroke-width="0.283" opacity="0.084"/><path d="M163.174 243.573l-2.174 0.503" stroke="#ffffff" stroke-width="0.158" opacity="0.134"/><path d="M436.2 103.089l-0.035 0.412" stroke="#7f684c" stroke-width="0.555" opacity="0.087"/><path d="M348.789 44.194l1.412 0.819" stroke="#7f684c" stroke-width="0.17" opacity="0.164"/><path d="M246.768 386.906l-1.348 -0.937" stroke="#ffffff" stroke-width="0.587" opacity="0.155"/><path d="M301.979 129.607l-0.266 -3.105" stroke="#7f684c" stroke-width="0.424" opacity="0.163"/><path d="M209.492 9.892l2.331 -2.312" stroke="#7f684c" stroke-width="0.676" opacity="0.193"/><path d="M425.069 313.8l-1.329 2.165" stroke="#ffffff" stroke-width="0.461" opacity="0.129"/><path d="M15.278 230.965l0.24 1.121" stroke="#7f684c" stroke-width="0.435" opacity="0.089"/><path d="M243.632 299.138l-2.646 1.799" stroke="#7f684c" stroke-width="0.314" opacity="0.11"/><path d="M232.831 42.522l0.081 -0.485" stroke="#ffffff" stroke-width="0.667" opacity="0.216"/><path d="M54.601 234.48l1.503 -0.064" stroke="#7f684c" stroke-width="0.368" opacity="0.159"/><path d="M39.337 312.562l0.83 3.52" stroke="#7f684c" stroke-width="0.505" opacity="0.165"/><path d="M336.887 82.366l-0.894 1.672" stroke="#ffffff" stroke-width="0.305" opacity="0.111"/><path d="M316.784 192.773l0.325 0.646" stroke="#7f684c" stroke-width="0.652" opacity="0.115"/><path d="M283.312 293.378l-0.602 -0.573" stroke="#7f684c" stroke-width="0.353" opacity="0.207"/><path d="M417.318 203.825l-1.161 0.419" stroke="#ffffff" stroke-width="0.623" opacity="0.21"/><path d="M417.881 159.043l1.047 -2.673" stroke="#7f684c" stroke-width="0.503" opacity="0.095"/><path d="M171.333 54.343l-0.636 -0.324" stroke="#7f684c" stroke-width="0.573" opacity="0.161"/><path d="M387.715 36.878l1.221 3.395" stroke="#ffffff" stroke-width="0.639" opacity="0.09"/><path d="M30.188 353.299l0.251 0.361" stroke="#7f684c" stroke-width="0.256" opacity="0.129"/><path d="M171.173 123.436l0.14 0.76" stroke="#7f684c" stroke-width="0.262" opacity="0.184"/><path d="M210.747 356.807l0.308 0.057" stroke="#ffffff" stroke-width="0.501" opacity="0.135"/><path d="M379.971 218.47l0.377 -0.387" stroke="#7f684c" stroke-width="0.496" opacity="0.215"/><path d="M255.152 325.562l1.523 1.638" stroke="#7f684c" stroke-width="0.56" opacity="0.088"/><path d="M64.342 352.578l-0.448 0.189" stroke="#ffffff" stroke-width="0.163" opacity="0.115"/><path d="M91.504 50.39l-0.135 -0.731" stroke="#7f684c" stroke-width="0.291" opacity="0.149"/><path d="M153.524 302.913l-2.46 -1.564" stroke="#7f684c" stroke-width="0.448" opacity="0.198"/><path d="M294.367 371.665l0.846 3.002" stroke="#ffffff" stroke-width="0.269" opacity="0.215"/><path d="M234.148 8.855l0.782 0.445" stroke="#7f684c" stroke-width="0.322" opacity="0.218"/><path d="M227.285 222.561l1.88 -2.447" stroke="#7f684c" stroke-width="0.235" opacity="0.142"/><circle cx="76.291" cy="273.719" r="0.733" fill="#745b3d" opacity="0.112"/><circle cx="81.985" cy="220.516" r="0.941" fill="#745b3d" opacity="0.065"/><circle cx="16.633" cy="309.712" r="0.506" fill="#745b3d" opacity="0.056"/><circle cx="383.263" cy="123.887" r="0.876" fill="#745b3d" opacity="0.057"/><circle cx="292.09" cy="212.767" r="0.642" fill="#745b3d" opacity="0.053"/><circle cx="371.999" cy="373.9" r="0.932" fill="#745b3d" opacity="0.095"/><circle cx="409.42" cy="130.95" r="1.293" fill="#745b3d" opacity="0.102"/><circle cx="161.014" cy="345.949" r="1.237" fill="#745b3d" opacity="0.071"/><circle cx="96.789" cy="331.065" r="0.841" fill="#745b3d" opacity="0.037"/><circle cx="250.548" cy="93.736" r="0.355" fill="#745b3d" opacity="0.056"/><circle cx="270.805" cy="330.238" r="1.122" fill="#745b3d" opacity="0.051"/><circle cx="378.566" cy="271.01" r="0.945" fill="#745b3d" opacity="0.078"/><circle cx="425.609" cy="191.324" r="0.383" fill="#745b3d" opacity="0.119"/><circle cx="37.147" cy="327.126" r="1.036" fill="#745b3d" opacity="0.134"/><circle cx="310.039" cy="92.115" r="1.264" fill="#745b3d" opacity="0.092"/><circle cx="217.911" cy="33.412" r="0.342" fill="#745b3d" opacity="0.09"/><circle cx="211.847" cy="113.366" r="1.262" fill="#745b3d" opacity="0.127"/><circle cx="268.53" cy="61.355" r="0.602" fill="#745b3d" opacity="0.14"/><circle cx="285.984" cy="245.635" r="0.319" fill="#745b3d" opacity="0.133"/><circle cx="348.29" cy="56.588" r="0.99" fill="#745b3d" opacity="0.071"/><circle cx="237.944" cy="225.929" r="0.341" fill="#745b3d" opacity="0.105"/><circle cx="305.716" cy="43.706" r="1.216" fill="#745b3d" opacity="0.061"/><circle cx="236.175" cy="371.174" r="0.846" fill="#745b3d" opacity="0.138"/><circle cx="222.261" cy="104.875" r="0.746" fill="#745b3d" opacity="0.062"/><circle cx="431.545" cy="296.483" r="1.234" fill="#745b3d" opacity="0.106"/><circle cx="0.064" cy="277.271" r="0.453" fill="#745b3d" opacity="0.07"/><circle cx="394.881" cy="186.249" r="1.292" fill="#745b3d" opacity="0.135"/><circle cx="178.756" cy="280.323" r="0.395" fill="#745b3d" opacity="0.069"/><circle cx="220.561" cy="339.043" r="0.977" fill="#745b3d" opacity="0.081"/><circle cx="48.344" cy="239.766" r="1.075" fill="#745b3d" opacity="0.093"/><circle cx="237.172" cy="153.326" r="0.519" fill="#745b3d" opacity="0.115"/><circle cx="50.146" cy="74.514" r="0.824" fill="#745b3d" opacity="0.076"/><circle cx="199.232" cy="54.978" r="0.863" fill="#745b3d" opacity="0.113"/><circle cx="162.795" cy="269.34" r="0.863" fill="#745b3d" opacity="0.037"/><circle cx="144.975" cy="142.632" r="1.282" fill="#745b3d" opacity="0.143"/><circle cx="391.303" cy="143.369" r="1.251" fill="#745b3d" opacity="0.051"/><circle cx="298.191" cy="218.828" r="0.468" fill="#745b3d" opacity="0.089"/><circle cx="300.187" cy="227.388" r="0.294" fill="#745b3d" opacity="0.122"/><circle cx="14.14" cy="39.972" r="1.108" fill="#745b3d" opacity="0.042"/><circle cx="212.661" cy="191.961" r="0.605" fill="#745b3d" opacity="0.059"/><circle cx="139.522" cy="174.115" r="1.128" fill="#745b3d" opacity="0.042"/><circle cx="142.886" cy="106.366" r="0.769" fill="#745b3d" opacity="0.126"/><circle cx="46.506" cy="354.538" r="1.023" fill="#745b3d" opacity="0.051"/><circle cx="394.283" cy="360.332" r="1.004" fill="#745b3d" opacity="0.054"/><circle cx="265.829" cy="386.153" r="1.015" fill="#745b3d" opacity="0.039"/><circle cx="327.914" cy="248.602" r="0.739" fill="#745b3d" opacity="0.042"/><circle cx="230.955" cy="103.719" r="0.633" fill="#745b3d" opacity="0.073"/><circle cx="107.918" cy="275.299" r="0.729" fill="#745b3d" opacity="0.103"/><circle cx="310.293" cy="326.863" r="0.723" fill="#745b3d" opacity="0.09"/><circle cx="180.014" cy="9.109" r="1.288" fill="#745b3d" opacity="0.093"/><circle cx="261.483" cy="143.921" r="0.546" fill="#745b3d" opacity="0.112"/><circle cx="231.067" cy="47.273" r="0.859" fill="#745b3d" opacity="0.063"/><circle cx="225.738" cy="249.587" r="0.437" fill="#745b3d" opacity="0.143"/><circle cx="251.711" cy="308.396" r="1.206" fill="#745b3d" opacity="0.076"/><circle cx="329.256" cy="277.374" r="0.607" fill="#745b3d" opacity="0.065"/><circle cx="206.044" cy="100.065" r="0.342" fill="#745b3d" opacity="0.138"/><circle cx="202.69" cy="240.894" r="0.266" fill="#745b3d" opacity="0.099"/><circle cx="56.374" cy="350.282" r="0.471" fill="#745b3d" opacity="0.137"/><circle cx="166.679" cy="248.944" r="1.273" fill="#745b3d" opacity="0.058"/><circle cx="143.039" cy="222.705" r="0.527" fill="#745b3d" opacity="0.117"/><circle cx="150.444" cy="50.402" r="0.57" fill="#745b3d" opacity="0.037"/><circle cx="171.279" cy="174.708" r="0.574" fill="#745b3d" opacity="0.121"/><circle cx="276.45" cy="353.948" r="0.79" fill="#745b3d" opacity="0.122"/><circle cx="301.181" cy="177.249" r="1.295" fill="#745b3d" opacity="0.039"/><circle cx="52.123" cy="87.582" r="1.241" fill="#745b3d" opacity="0.106"/><circle cx="407.674" cy="98.55" r="0.651" fill="#745b3d" opacity="0.126"/><circle cx="101.633" cy="100.967" r="0.773" fill="#745b3d" opacity="0.09"/><circle cx="132.599" cy="306.594" r="0.328" fill="#745b3d" opacity="0.093"/><circle cx="319.742" cy="84.576" r="0.974" fill="#745b3d" opacity="0.101"/><circle cx="165.836" cy="156.43" r="0.955" fill="#745b3d" opacity="0.074"/><circle cx="128.71" cy="375.656" r="1.285" fill="#745b3d" opacity="0.047"/><circle cx="385.488" cy="197.293" r="0.798" fill="#745b3d" opacity="0.069"/><circle cx="401.268" cy="93.006" r="0.753" fill="#745b3d" opacity="0.121"/><circle cx="101.138" cy="319.532" r="1.091" fill="#745b3d" opacity="0.043"/><circle cx="57.651" cy="158.558" r="1.16" fill="#745b3d" opacity="0.11"/><circle cx="400.165" cy="65.361" r="1.187" fill="#745b3d" opacity="0.144"/><circle cx="9.689" cy="313.787" r="1.025" fill="#745b3d" opacity="0.141"/><circle cx="294.113" cy="325.409" r="0.34" fill="#745b3d" opacity="0.056"/><circle cx="30.972" cy="244.916" r="0.439" fill="#745b3d" opacity="0.113"/><circle cx="212.138" cy="197.094" r="0.868" fill="#745b3d" opacity="0.109"/><circle cx="352.067" cy="148.945" r="0.977" fill="#745b3d" opacity="0.128"/><circle cx="168.508" cy="285.8" r="1.138" fill="#745b3d" opacity="0.089"/><circle cx="114.802" cy="351.486" r="0.69" fill="#745b3d" opacity="0.047"/><circle cx="33.167" cy="0.877" r="0.435" fill="#745b3d" opacity="0.041"/><circle cx="114.61" cy="365.419" r="0.969" fill="#745b3d" opacity="0.046"/><circle cx="157.358" cy="127.442" r="1.005" fill="#745b3d" opacity="0.078"/><circle cx="216.94" cy="113.349" r="1.144" fill="#745b3d" opacity="0.073"/><circle cx="169.322" cy="171" r="0.978" fill="#745b3d" opacity="0.093"/><circle cx="187.727" cy="201.883" r="0.757" fill="#745b3d" opacity="0.086"/><circle cx="310.04" cy="199.879" r="1.271" fill="#745b3d" opacity="0.141"/></pattern>
 <pattern id="atelier-12-soundtrack-art-6-1-linen" width="9" height="9" patternUnits="userSpaceOnUse"><path d="M0 2H9M2 0V9" stroke="#665847" stroke-width=".6" opacity=".065"/><path d="M0 6H9M6 0V9" stroke="#fff" stroke-width=".7" opacity=".32"/></pattern>
 <pattern id="atelier-12-soundtrack-art-6-1-halftone" width="5" height="5" patternUnits="userSpaceOnUse"><circle cx="1.8" cy="1.8" r=".75" fill="#3c3028" opacity=".22"/></pattern>
 <pattern id="atelier-12-soundtrack-art-6-1-slot-hatch" width="26" height="26" patternUnits="userSpaceOnUse" patternTransform="rotate(35)"><path d="M0 0V26" stroke="#687b80" stroke-width=".8" opacity=".12"/></pattern>
 <filter id="atelier-12-soundtrack-art-6-1-shadow" x="-.12" y="-.12" width="1.3" height="1.3" color-interpolation-filters="sRGB"><feGaussianBlur in="SourceAlpha" stdDeviation="4" result="blur"/><feOffset in="blur" dx="3" dy="6" result="offset"/><feFlood flood-color="#241b13" flood-opacity=".2" result="ink"/><feComposite in="ink" in2="offset" operator="in" result="shadow"/><feMerge><feMergeNode in="shadow"/><feMergeNode in="SourceGraphic"/></feMerge></filter>
 <linearGradient id="atelier-12-soundtrack-art-6-1-fold" x1="0" x2="1"><stop stop-color="#695039" stop-opacity="0"/><stop offset=".43" stop-color="#695039" stop-opacity=".035"/><stop offset=".49" stop-color="#483826" stop-opacity=".12"/><stop offset=".52" stop-color="#fff" stop-opacity=".5"/><stop offset="1" stop-color="#fff" stop-opacity="0"/></linearGradient>
 <linearGradient id="atelier-12-soundtrack-art-6-1-paperwash" x1="0" x2=".9" y2="1"><stop stop-color="#d1b58d" stop-opacity=".2"/><stop offset=".34" stop-color="#fff" stop-opacity="0"/><stop offset="1" stop-color="#8e6d44" stop-opacity=".08"/></linearGradient>
 <radialGradient id="atelier-12-soundtrack-art-6-1-patina"><stop offset=".66" stop-color="#c69b60" stop-opacity="0"/><stop offset="1" stop-color="#846542" stop-opacity=".15"/></radialGradient>
 <linearGradient id="atelier-12-soundtrack-art-6-1-vinyl" x1=".1" y1="0" x2=".85" y2="1"><stop stop-color="#090c0d"/><stop offset=".25" stop-color="#303538"/><stop offset=".42" stop-color="#0a0c0d"/><stop offset=".7" stop-color="#303536"/><stop offset="1" stop-color="#0a0c0d"/></linearGradient>
 <linearGradient id="atelier-12-soundtrack-art-6-1-glass" x1="0" x2="1" y1="0" y2="1"><stop stop-color="#fff" stop-opacity=".26"/><stop offset=".38" stop-color="#fff" stop-opacity="0"/><stop offset="1" stop-color="#fff" stop-opacity=".07"/></linearGradient>
 <linearGradient id="atelier-12-soundtrack-art-6-1-lightleak" x1="0" x2="1"><stop stop-color="#bd7138" stop-opacity=".6"/><stop offset=".14" stop-color="#e1ae6d" stop-opacity=".1"/><stop offset=".55" stop-color="#c06335" stop-opacity="0"/></linearGradient>
 </defs><g transform="matrix(0.9986295347545738 -0.05233595624294383 0.05233595624294383 0.9986295347545738 614.4089863267205 9.980127532644985)" opacity="1"><g><path d="M0,0.362 L11.992,-1.276 L23.984,-1.885 L35.976,-1.327 L47.967,-0.755 L59.959,1.153 L71.951,0.549 L83.943,2.031 L95.935,-0.041 L107.927,0.742 L119.919,1.048 L131.911,-0.154 L143.902,-0.746 L155.894,1.865 L167.886,-0.668 L179.878,-0.752 L191.87,0.186 L203.862,2.087 L215.854,5.214 L227.846,0.597 L239.837,2.769 L251.829,1.391 L263.821,1.697 L275.813,0.599 L287.805,4.493 L299.797,-0.442 L311.789,-0.033 L323.78,-0.201 L335.772,-0.096 L347.764,3.322 L359.756,1.309 L371.748,2.167 L383.74,-1.232 L395.732,-1.616 L407.724,0.906 L419.715,3.075 L431.707,-2.174 L443.699,-2.474 L455.691,-4.337 L467.683,-4.147 L479.675,2.192 L491.667,-1.89 L503.659,4.187 L515.65,4.647 L527.642,5.547 L539.634,3.492 L551.626,5.969 L563.618,3.759 L575.61,3.717 L587.602,5.238 L599.593,1.849 L611.585,3.278 L623.577,1.394 L635.569,-5.537 L647.561,2.571 L659.553,2.753 L671.545,1.429 L683.537,-1.186 L695.528,0.232 L707.52,3.414 L719.512,0.82 L731.504,-2.828 L743.496,0.193 L755.488,5.611 L767.48,5.687 L779.472,4.479 L791.463,5.897 L803.455,0.539 L815.447,-4.656 L827.439,-0.704 L839.431,-3.73 L851.423,-1.532 L863.415,-2.904 L875.407,-4.293 L887.398,1.303 L899.39,-1.804 L911.382,-0.651 L923.374,0.532 L935.366,2.601 L947.358,4.903 L959.35,1.539 L971.341,6.03 L983.333,1.385 L995.325,4.73 L1007.317,-1.203 L1019.309,-4.23 L1031.301,0.321 L1043.293,-4.773 L1055.285,-5.527 L1067.276,1.343 L1079.268,-1.382 L1091.26,2.966 L1103.252,-1.586 L1115.244,1.036 L1127.236,4.705 L1139.228,3.9 L1151.22,5.397 L1163.211,2.386 L1175.203,1.902 L1187.195,-1.358 L1199.187,-2.979 L1211.179,1.102 L1223.171,-1.088 L1235.163,2.162 L1247.154,-1.015 L1259.146,-2.875 L1271.138,-3.477 L1283.13,-2.843 L1295.122,-2.167 L1307.114,0.518 L1319.106,-0.121 L1331.098,-0.212 L1343.089,-0.556 L1355.081,0.69 L1367.073,1.368 L1379.065,-1.057 L1391.057,2.525 L1403.049,1.703 L1415.041,-1.935 L1427.033,-1.788 L1439.024,0.029 L1451.016,-0.2 L1463.008,-0.802 L1473.542,0 L1476.066,11.872 L1475.751,23.745 L1472.707,35.617 L1472.315,47.489 L1472.293,59.362 L1470.019,71.234 L1472.967,83.106 L1475.925,94.979 L1470.767,106.851 L1471.53,118.723 L1476.438,130.596 L1476.483,142.468 L1470.629,154.34 L1471.855,166.213 L1475.193,178.085 L1476.582,189.957 L1473.273,201.83 L1473.072,213.702 L1469.632,225.574 L1469.823,237.447 L1471.209,249.319 L1472.966,261.191 L1476.955,273.064 L1474.609,284.936 L1473.139,296.809 L1470.589,308.681 L1476.754,320.553 L1472.178,332.426 L1470.705,344.298 L1467.98,356.17 L1471.925,368.043 L1469.662,379.915 L1474.517,391.787 L1478.608,403.66 L1477.824,415.532 L1478.896,427.404 L1476.356,439.277 L1473.29,451.149 L1477.412,463.021 L1476.369,474.894 L1476.539,486.766 L1476.214,498.638 L1476.028,510.511 L1475.821,522.383 L1475.431,534.255 L1473.822,546.128 L1475,557.589 L1463.008,557.511 L1451.016,558.334 L1439.024,555.951 L1427.033,557.374 L1415.041,556.901 L1403.049,559.091 L1391.057,558.032 L1379.065,560.292 L1367.073,555.575 L1355.081,555.703 L1343.089,555.29 L1331.098,557.015 L1319.106,557.076 L1307.114,554.027 L1295.122,557.422 L1283.13,559.66 L1271.138,558.356 L1259.146,556.032 L1247.154,558.993 L1235.163,554.27 L1223.171,559.17 L1211.179,557.002 L1199.187,554.809 L1187.195,558.509 L1175.203,557.365 L1163.211,556.388 L1151.22,555.112 L1139.228,557.975 L1127.236,556.839 L1115.244,552.187 L1103.252,552.261 L1091.26,557.632 L1079.268,555.624 L1067.276,556.954 L1055.285,556.56 L1043.293,551.814 L1031.301,558.293 L1019.309,557.104 L1007.317,562.459 L995.325,561.297 L983.333,559.669 L971.341,556.134 L959.35,558.509 L947.358,559.246 L935.366,554.071 L923.374,558.838 L911.382,557.732 L899.39,559.618 L887.398,556.106 L875.407,551.213 L863.415,548.534 L851.423,553.187 L839.431,559.326 L827.439,556.261 L815.447,551 L803.455,558.417 L791.463,552.977 L779.472,552.859 L767.48,555.113 L755.488,557.19 L743.496,555.698 L731.504,556.918 L719.512,558.75 L707.52,554.193 L695.528,552.02 L683.537,556.851 L671.545,560.233 L659.553,556.892 L647.561,557.961 L635.569,559.259 L623.577,561.316 L611.585,563.111 L599.593,557.355 L587.602,556.632 L575.61,558.589 L563.618,558.797 L551.626,555.71 L539.634,553.753 L527.642,553.327 L515.65,549.868 L503.659,551.558 L491.667,552.866 L479.675,559.284 L467.683,560.728 L455.691,562.27 L443.699,557.818 L431.707,559.199 L419.715,561.598 L407.724,558.277 L395.732,559.819 L383.74,557.119 L371.748,555.214 L359.756,557.042 L347.764,560.463 L335.772,558.653 L323.78,558.758 L311.789,556.935 L299.797,557.115 L287.805,559.369 L275.813,555.142 L263.821,555.999 L251.829,558.737 L239.837,557.991 L227.846,555.551 L215.854,560.317 L203.862,556.611 L191.87,556.421 L179.878,557.434 L167.886,560.917 L155.894,556.629 L143.902,556.157 L131.911,557.267 L119.919,557.695 L107.927,558.678 L95.935,557.141 L83.943,558.191 L71.951,557.209 L59.959,558.935 L47.967,557.427 L35.976,559.776 L23.984,557.729 L11.992,558.034 L1.049,558 L-0.039,546.128 L-0.233,534.255 L-1.243,522.383 L-2.448,510.511 L0.494,498.638 L2.151,486.766 L1.546,474.894 L1.324,463.021 L-0.62,451.149 L2.792,439.277 L-0.716,427.404 L-2.89,415.532 L-4.354,403.66 L-3.791,391.787 L-0.622,379.915 L-3.492,368.043 L-5.812,356.17 L-2.239,344.298 L-0.216,332.426 L-1.837,320.553 L0.818,308.681 L4.736,296.809 L5.326,284.936 L6.798,273.064 L6.173,261.191 L3.252,249.319 L3.937,237.447 L4.472,225.574 L0.075,213.702 L0.231,201.83 L-0.487,189.957 L0.013,178.085 L0.891,166.213 L-2.099,154.34 L-3.473,142.468 L-0.204,130.596 L-1.485,118.723 L0.919,106.851 L-0.977,94.979 L3.642,83.106 L0.525,71.234 L-1.582,59.362 L1.695,47.489 L-0.331,35.617 L1.807,23.745 L0.191,11.872 Z" fill="#f6eddb" filter="url(#atelier-12-soundtrack-art-6-1-shadow)"/><path d="M0,0.362 L11.992,-1.276 L23.984,-1.885 L35.976,-1.327 L47.967,-0.755 L59.959,1.153 L71.951,0.549 L83.943,2.031 L95.935,-0.041 L107.927,0.742 L119.919,1.048 L131.911,-0.154 L143.902,-0.746 L155.894,1.865 L167.886,-0.668 L179.878,-0.752 L191.87,0.186 L203.862,2.087 L215.854,5.214 L227.846,0.597 L239.837,2.769 L251.829,1.391 L263.821,1.697 L275.813,0.599 L287.805,4.493 L299.797,-0.442 L311.789,-0.033 L323.78,-0.201 L335.772,-0.096 L347.764,3.322 L359.756,1.309 L371.748,2.167 L383.74,-1.232 L395.732,-1.616 L407.724,0.906 L419.715,3.075 L431.707,-2.174 L443.699,-2.474 L455.691,-4.337 L467.683,-4.147 L479.675,2.192 L491.667,-1.89 L503.659,4.187 L515.65,4.647 L527.642,5.547 L539.634,3.492 L551.626,5.969 L563.618,3.759 L575.61,3.717 L587.602,5.238 L599.593,1.849 L611.585,3.278 L623.577,1.394 L635.569,-5.537 L647.561,2.571 L659.553,2.753 L671.545,1.429 L683.537,-1.186 L695.528,0.232 L707.52,3.414 L719.512,0.82 L731.504,-2.828 L743.496,0.193 L755.488,5.611 L767.48,5.687 L779.472,4.479 L791.463,5.897 L803.455,0.539 L815.447,-4.656 L827.439,-0.704 L839.431,-3.73 L851.423,-1.532 L863.415,-2.904 L875.407,-4.293 L887.398,1.303 L899.39,-1.804 L911.382,-0.651 L923.374,0.532 L935.366,2.601 L947.358,4.903 L959.35,1.539 L971.341,6.03 L983.333,1.385 L995.325,4.73 L1007.317,-1.203 L1019.309,-4.23 L1031.301,0.321 L1043.293,-4.773 L1055.285,-5.527 L1067.276,1.343 L1079.268,-1.382 L1091.26,2.966 L1103.252,-1.586 L1115.244,1.036 L1127.236,4.705 L1139.228,3.9 L1151.22,5.397 L1163.211,2.386 L1175.203,1.902 L1187.195,-1.358 L1199.187,-2.979 L1211.179,1.102 L1223.171,-1.088 L1235.163,2.162 L1247.154,-1.015 L1259.146,-2.875 L1271.138,-3.477 L1283.13,-2.843 L1295.122,-2.167 L1307.114,0.518 L1319.106,-0.121 L1331.098,-0.212 L1343.089,-0.556 L1355.081,0.69 L1367.073,1.368 L1379.065,-1.057 L1391.057,2.525 L1403.049,1.703 L1415.041,-1.935 L1427.033,-1.788 L1439.024,0.029 L1451.016,-0.2 L1463.008,-0.802 L1473.542,0 L1476.066,11.872 L1475.751,23.745 L1472.707,35.617 L1472.315,47.489 L1472.293,59.362 L1470.019,71.234 L1472.967,83.106 L1475.925,94.979 L1470.767,106.851 L1471.53,118.723 L1476.438,130.596 L1476.483,142.468 L1470.629,154.34 L1471.855,166.213 L1475.193,178.085 L1476.582,189.957 L1473.273,201.83 L1473.072,213.702 L1469.632,225.574 L1469.823,237.447 L1471.209,249.319 L1472.966,261.191 L1476.955,273.064 L1474.609,284.936 L1473.139,296.809 L1470.589,308.681 L1476.754,320.553 L1472.178,332.426 L1470.705,344.298 L1467.98,356.17 L1471.925,368.043 L1469.662,379.915 L1474.517,391.787 L1478.608,403.66 L1477.824,415.532 L1478.896,427.404 L1476.356,439.277 L1473.29,451.149 L1477.412,463.021 L1476.369,474.894 L1476.539,486.766 L1476.214,498.638 L1476.028,510.511 L1475.821,522.383 L1475.431,534.255 L1473.822,546.128 L1475,557.589 L1463.008,557.511 L1451.016,558.334 L1439.024,555.951 L1427.033,557.374 L1415.041,556.901 L1403.049,559.091 L1391.057,558.032 L1379.065,560.292 L1367.073,555.575 L1355.081,555.703 L1343.089,555.29 L1331.098,557.015 L1319.106,557.076 L1307.114,554.027 L1295.122,557.422 L1283.13,559.66 L1271.138,558.356 L1259.146,556.032 L1247.154,558.993 L1235.163,554.27 L1223.171,559.17 L1211.179,557.002 L1199.187,554.809 L1187.195,558.509 L1175.203,557.365 L1163.211,556.388 L1151.22,555.112 L1139.228,557.975 L1127.236,556.839 L1115.244,552.187 L1103.252,552.261 L1091.26,557.632 L1079.268,555.624 L1067.276,556.954 L1055.285,556.56 L1043.293,551.814 L1031.301,558.293 L1019.309,557.104 L1007.317,562.459 L995.325,561.297 L983.333,559.669 L971.341,556.134 L959.35,558.509 L947.358,559.246 L935.366,554.071 L923.374,558.838 L911.382,557.732 L899.39,559.618 L887.398,556.106 L875.407,551.213 L863.415,548.534 L851.423,553.187 L839.431,559.326 L827.439,556.261 L815.447,551 L803.455,558.417 L791.463,552.977 L779.472,552.859 L767.48,555.113 L755.488,557.19 L743.496,555.698 L731.504,556.918 L719.512,558.75 L707.52,554.193 L695.528,552.02 L683.537,556.851 L671.545,560.233 L659.553,556.892 L647.561,557.961 L635.569,559.259 L623.577,561.316 L611.585,563.111 L599.593,557.355 L587.602,556.632 L575.61,558.589 L563.618,558.797 L551.626,555.71 L539.634,553.753 L527.642,553.327 L515.65,549.868 L503.659,551.558 L491.667,552.866 L479.675,559.284 L467.683,560.728 L455.691,562.27 L443.699,557.818 L431.707,559.199 L419.715,561.598 L407.724,558.277 L395.732,559.819 L383.74,557.119 L371.748,555.214 L359.756,557.042 L347.764,560.463 L335.772,558.653 L323.78,558.758 L311.789,556.935 L299.797,557.115 L287.805,559.369 L275.813,555.142 L263.821,555.999 L251.829,558.737 L239.837,557.991 L227.846,555.551 L215.854,560.317 L203.862,556.611 L191.87,556.421 L179.878,557.434 L167.886,560.917 L155.894,556.629 L143.902,556.157 L131.911,557.267 L119.919,557.695 L107.927,558.678 L95.935,557.141 L83.943,558.191 L71.951,557.209 L59.959,558.935 L47.967,557.427 L35.976,559.776 L23.984,557.729 L11.992,558.034 L1.049,558 L-0.039,546.128 L-0.233,534.255 L-1.243,522.383 L-2.448,510.511 L0.494,498.638 L2.151,486.766 L1.546,474.894 L1.324,463.021 L-0.62,451.149 L2.792,439.277 L-0.716,427.404 L-2.89,415.532 L-4.354,403.66 L-3.791,391.787 L-0.622,379.915 L-3.492,368.043 L-5.812,356.17 L-2.239,344.298 L-0.216,332.426 L-1.837,320.553 L0.818,308.681 L4.736,296.809 L5.326,284.936 L6.798,273.064 L6.173,261.191 L3.252,249.319 L3.937,237.447 L4.472,225.574 L0.075,213.702 L0.231,201.83 L-0.487,189.957 L0.013,178.085 L0.891,166.213 L-2.099,154.34 L-3.473,142.468 L-0.204,130.596 L-1.485,118.723 L0.919,106.851 L-0.977,94.979 L3.642,83.106 L0.525,71.234 L-1.582,59.362 L1.695,47.489 L-0.331,35.617 L1.807,23.745 L0.191,11.872 Z" fill="url(#atelier-12-soundtrack-art-6-1-paperwash)"/><path d="M0,0.362 L11.992,-1.276 L23.984,-1.885 L35.976,-1.327 L47.967,-0.755 L59.959,1.153 L71.951,0.549 L83.943,2.031 L95.935,-0.041 L107.927,0.742 L119.919,1.048 L131.911,-0.154 L143.902,-0.746 L155.894,1.865 L167.886,-0.668 L179.878,-0.752 L191.87,0.186 L203.862,2.087 L215.854,5.214 L227.846,0.597 L239.837,2.769 L251.829,1.391 L263.821,1.697 L275.813,0.599 L287.805,4.493 L299.797,-0.442 L311.789,-0.033 L323.78,-0.201 L335.772,-0.096 L347.764,3.322 L359.756,1.309 L371.748,2.167 L383.74,-1.232 L395.732,-1.616 L407.724,0.906 L419.715,3.075 L431.707,-2.174 L443.699,-2.474 L455.691,-4.337 L467.683,-4.147 L479.675,2.192 L491.667,-1.89 L503.659,4.187 L515.65,4.647 L527.642,5.547 L539.634,3.492 L551.626,5.969 L563.618,3.759 L575.61,3.717 L587.602,5.238 L599.593,1.849 L611.585,3.278 L623.577,1.394 L635.569,-5.537 L647.561,2.571 L659.553,2.753 L671.545,1.429 L683.537,-1.186 L695.528,0.232 L707.52,3.414 L719.512,0.82 L731.504,-2.828 L743.496,0.193 L755.488,5.611 L767.48,5.687 L779.472,4.479 L791.463,5.897 L803.455,0.539 L815.447,-4.656 L827.439,-0.704 L839.431,-3.73 L851.423,-1.532 L863.415,-2.904 L875.407,-4.293 L887.398,1.303 L899.39,-1.804 L911.382,-0.651 L923.374,0.532 L935.366,2.601 L947.358,4.903 L959.35,1.539 L971.341,6.03 L983.333,1.385 L995.325,4.73 L1007.317,-1.203 L1019.309,-4.23 L1031.301,0.321 L1043.293,-4.773 L1055.285,-5.527 L1067.276,1.343 L1079.268,-1.382 L1091.26,2.966 L1103.252,-1.586 L1115.244,1.036 L1127.236,4.705 L1139.228,3.9 L1151.22,5.397 L1163.211,2.386 L1175.203,1.902 L1187.195,-1.358 L1199.187,-2.979 L1211.179,1.102 L1223.171,-1.088 L1235.163,2.162 L1247.154,-1.015 L1259.146,-2.875 L1271.138,-3.477 L1283.13,-2.843 L1295.122,-2.167 L1307.114,0.518 L1319.106,-0.121 L1331.098,-0.212 L1343.089,-0.556 L1355.081,0.69 L1367.073,1.368 L1379.065,-1.057 L1391.057,2.525 L1403.049,1.703 L1415.041,-1.935 L1427.033,-1.788 L1439.024,0.029 L1451.016,-0.2 L1463.008,-0.802 L1473.542,0 L1476.066,11.872 L1475.751,23.745 L1472.707,35.617 L1472.315,47.489 L1472.293,59.362 L1470.019,71.234 L1472.967,83.106 L1475.925,94.979 L1470.767,106.851 L1471.53,118.723 L1476.438,130.596 L1476.483,142.468 L1470.629,154.34 L1471.855,166.213 L1475.193,178.085 L1476.582,189.957 L1473.273,201.83 L1473.072,213.702 L1469.632,225.574 L1469.823,237.447 L1471.209,249.319 L1472.966,261.191 L1476.955,273.064 L1474.609,284.936 L1473.139,296.809 L1470.589,308.681 L1476.754,320.553 L1472.178,332.426 L1470.705,344.298 L1467.98,356.17 L1471.925,368.043 L1469.662,379.915 L1474.517,391.787 L1478.608,403.66 L1477.824,415.532 L1478.896,427.404 L1476.356,439.277 L1473.29,451.149 L1477.412,463.021 L1476.369,474.894 L1476.539,486.766 L1476.214,498.638 L1476.028,510.511 L1475.821,522.383 L1475.431,534.255 L1473.822,546.128 L1475,557.589 L1463.008,557.511 L1451.016,558.334 L1439.024,555.951 L1427.033,557.374 L1415.041,556.901 L1403.049,559.091 L1391.057,558.032 L1379.065,560.292 L1367.073,555.575 L1355.081,555.703 L1343.089,555.29 L1331.098,557.015 L1319.106,557.076 L1307.114,554.027 L1295.122,557.422 L1283.13,559.66 L1271.138,558.356 L1259.146,556.032 L1247.154,558.993 L1235.163,554.27 L1223.171,559.17 L1211.179,557.002 L1199.187,554.809 L1187.195,558.509 L1175.203,557.365 L1163.211,556.388 L1151.22,555.112 L1139.228,557.975 L1127.236,556.839 L1115.244,552.187 L1103.252,552.261 L1091.26,557.632 L1079.268,555.624 L1067.276,556.954 L1055.285,556.56 L1043.293,551.814 L1031.301,558.293 L1019.309,557.104 L1007.317,562.459 L995.325,561.297 L983.333,559.669 L971.341,556.134 L959.35,558.509 L947.358,559.246 L935.366,554.071 L923.374,558.838 L911.382,557.732 L899.39,559.618 L887.398,556.106 L875.407,551.213 L863.415,548.534 L851.423,553.187 L839.431,559.326 L827.439,556.261 L815.447,551 L803.455,558.417 L791.463,552.977 L779.472,552.859 L767.48,555.113 L755.488,557.19 L743.496,555.698 L731.504,556.918 L719.512,558.75 L707.52,554.193 L695.528,552.02 L683.537,556.851 L671.545,560.233 L659.553,556.892 L647.561,557.961 L635.569,559.259 L623.577,561.316 L611.585,563.111 L599.593,557.355 L587.602,556.632 L575.61,558.589 L563.618,558.797 L551.626,555.71 L539.634,553.753 L527.642,553.327 L515.65,549.868 L503.659,551.558 L491.667,552.866 L479.675,559.284 L467.683,560.728 L455.691,562.27 L443.699,557.818 L431.707,559.199 L419.715,561.598 L407.724,558.277 L395.732,559.819 L383.74,557.119 L371.748,555.214 L359.756,557.042 L347.764,560.463 L335.772,558.653 L323.78,558.758 L311.789,556.935 L299.797,557.115 L287.805,559.369 L275.813,555.142 L263.821,555.999 L251.829,558.737 L239.837,557.991 L227.846,555.551 L215.854,560.317 L203.862,556.611 L191.87,556.421 L179.878,557.434 L167.886,560.917 L155.894,556.629 L143.902,556.157 L131.911,557.267 L119.919,557.695 L107.927,558.678 L95.935,557.141 L83.943,558.191 L71.951,557.209 L59.959,558.935 L47.967,557.427 L35.976,559.776 L23.984,557.729 L11.992,558.034 L1.049,558 L-0.039,546.128 L-0.233,534.255 L-1.243,522.383 L-2.448,510.511 L0.494,498.638 L2.151,486.766 L1.546,474.894 L1.324,463.021 L-0.62,451.149 L2.792,439.277 L-0.716,427.404 L-2.89,415.532 L-4.354,403.66 L-3.791,391.787 L-0.622,379.915 L-3.492,368.043 L-5.812,356.17 L-2.239,344.298 L-0.216,332.426 L-1.837,320.553 L0.818,308.681 L4.736,296.809 L5.326,284.936 L6.798,273.064 L6.173,261.191 L3.252,249.319 L3.937,237.447 L4.472,225.574 L0.075,213.702 L0.231,201.83 L-0.487,189.957 L0.013,178.085 L0.891,166.213 L-2.099,154.34 L-3.473,142.468 L-0.204,130.596 L-1.485,118.723 L0.919,106.851 L-0.977,94.979 L3.642,83.106 L0.525,71.234 L-1.582,59.362 L1.695,47.489 L-0.331,35.617 L1.807,23.745 L0.191,11.872 Z" fill="url(#atelier-12-soundtrack-art-6-1-grain)" opacity=".82"/><path d="M0,0.362 L11.992,-1.276 L23.984,-1.885 L35.976,-1.327 L47.967,-0.755 L59.959,1.153 L71.951,0.549 L83.943,2.031 L95.935,-0.041 L107.927,0.742 L119.919,1.048 L131.911,-0.154 L143.902,-0.746 L155.894,1.865 L167.886,-0.668 L179.878,-0.752 L191.87,0.186 L203.862,2.087 L215.854,5.214 L227.846,0.597 L239.837,2.769 L251.829,1.391 L263.821,1.697 L275.813,0.599 L287.805,4.493 L299.797,-0.442 L311.789,-0.033 L323.78,-0.201 L335.772,-0.096 L347.764,3.322 L359.756,1.309 L371.748,2.167 L383.74,-1.232 L395.732,-1.616 L407.724,0.906 L419.715,3.075 L431.707,-2.174 L443.699,-2.474 L455.691,-4.337 L467.683,-4.147 L479.675,2.192 L491.667,-1.89 L503.659,4.187 L515.65,4.647 L527.642,5.547 L539.634,3.492 L551.626,5.969 L563.618,3.759 L575.61,3.717 L587.602,5.238 L599.593,1.849 L611.585,3.278 L623.577,1.394 L635.569,-5.537 L647.561,2.571 L659.553,2.753 L671.545,1.429 L683.537,-1.186 L695.528,0.232 L707.52,3.414 L719.512,0.82 L731.504,-2.828 L743.496,0.193 L755.488,5.611 L767.48,5.687 L779.472,4.479 L791.463,5.897 L803.455,0.539 L815.447,-4.656 L827.439,-0.704 L839.431,-3.73 L851.423,-1.532 L863.415,-2.904 L875.407,-4.293 L887.398,1.303 L899.39,-1.804 L911.382,-0.651 L923.374,0.532 L935.366,2.601 L947.358,4.903 L959.35,1.539 L971.341,6.03 L983.333,1.385 L995.325,4.73 L1007.317,-1.203 L1019.309,-4.23 L1031.301,0.321 L1043.293,-4.773 L1055.285,-5.527 L1067.276,1.343 L1079.268,-1.382 L1091.26,2.966 L1103.252,-1.586 L1115.244,1.036 L1127.236,4.705 L1139.228,3.9 L1151.22,5.397 L1163.211,2.386 L1175.203,1.902 L1187.195,-1.358 L1199.187,-2.979 L1211.179,1.102 L1223.171,-1.088 L1235.163,2.162 L1247.154,-1.015 L1259.146,-2.875 L1271.138,-3.477 L1283.13,-2.843 L1295.122,-2.167 L1307.114,0.518 L1319.106,-0.121 L1331.098,-0.212 L1343.089,-0.556 L1355.081,0.69 L1367.073,1.368 L1379.065,-1.057 L1391.057,2.525 L1403.049,1.703 L1415.041,-1.935 L1427.033,-1.788 L1439.024,0.029 L1451.016,-0.2 L1463.008,-0.802 L1473.542,0 L1476.066,11.872 L1475.751,23.745 L1472.707,35.617 L1472.315,47.489 L1472.293,59.362 L1470.019,71.234 L1472.967,83.106 L1475.925,94.979 L1470.767,106.851 L1471.53,118.723 L1476.438,130.596 L1476.483,142.468 L1470.629,154.34 L1471.855,166.213 L1475.193,178.085 L1476.582,189.957 L1473.273,201.83 L1473.072,213.702 L1469.632,225.574 L1469.823,237.447 L1471.209,249.319 L1472.966,261.191 L1476.955,273.064 L1474.609,284.936 L1473.139,296.809 L1470.589,308.681 L1476.754,320.553 L1472.178,332.426 L1470.705,344.298 L1467.98,356.17 L1471.925,368.043 L1469.662,379.915 L1474.517,391.787 L1478.608,403.66 L1477.824,415.532 L1478.896,427.404 L1476.356,439.277 L1473.29,451.149 L1477.412,463.021 L1476.369,474.894 L1476.539,486.766 L1476.214,498.638 L1476.028,510.511 L1475.821,522.383 L1475.431,534.255 L1473.822,546.128 L1475,557.589 L1463.008,557.511 L1451.016,558.334 L1439.024,555.951 L1427.033,557.374 L1415.041,556.901 L1403.049,559.091 L1391.057,558.032 L1379.065,560.292 L1367.073,555.575 L1355.081,555.703 L1343.089,555.29 L1331.098,557.015 L1319.106,557.076 L1307.114,554.027 L1295.122,557.422 L1283.13,559.66 L1271.138,558.356 L1259.146,556.032 L1247.154,558.993 L1235.163,554.27 L1223.171,559.17 L1211.179,557.002 L1199.187,554.809 L1187.195,558.509 L1175.203,557.365 L1163.211,556.388 L1151.22,555.112 L1139.228,557.975 L1127.236,556.839 L1115.244,552.187 L1103.252,552.261 L1091.26,557.632 L1079.268,555.624 L1067.276,556.954 L1055.285,556.56 L1043.293,551.814 L1031.301,558.293 L1019.309,557.104 L1007.317,562.459 L995.325,561.297 L983.333,559.669 L971.341,556.134 L959.35,558.509 L947.358,559.246 L935.366,554.071 L923.374,558.838 L911.382,557.732 L899.39,559.618 L887.398,556.106 L875.407,551.213 L863.415,548.534 L851.423,553.187 L839.431,559.326 L827.439,556.261 L815.447,551 L803.455,558.417 L791.463,552.977 L779.472,552.859 L767.48,555.113 L755.488,557.19 L743.496,555.698 L731.504,556.918 L719.512,558.75 L707.52,554.193 L695.528,552.02 L683.537,556.851 L671.545,560.233 L659.553,556.892 L647.561,557.961 L635.569,559.259 L623.577,561.316 L611.585,563.111 L599.593,557.355 L587.602,556.632 L575.61,558.589 L563.618,558.797 L551.626,555.71 L539.634,553.753 L527.642,553.327 L515.65,549.868 L503.659,551.558 L491.667,552.866 L479.675,559.284 L467.683,560.728 L455.691,562.27 L443.699,557.818 L431.707,559.199 L419.715,561.598 L407.724,558.277 L395.732,559.819 L383.74,557.119 L371.748,555.214 L359.756,557.042 L347.764,560.463 L335.772,558.653 L323.78,558.758 L311.789,556.935 L299.797,557.115 L287.805,559.369 L275.813,555.142 L263.821,555.999 L251.829,558.737 L239.837,557.991 L227.846,555.551 L215.854,560.317 L203.862,556.611 L191.87,556.421 L179.878,557.434 L167.886,560.917 L155.894,556.629 L143.902,556.157 L131.911,557.267 L119.919,557.695 L107.927,558.678 L95.935,557.141 L83.943,558.191 L71.951,557.209 L59.959,558.935 L47.967,557.427 L35.976,559.776 L23.984,557.729 L11.992,558.034 L1.049,558 L-0.039,546.128 L-0.233,534.255 L-1.243,522.383 L-2.448,510.511 L0.494,498.638 L2.151,486.766 L1.546,474.894 L1.324,463.021 L-0.62,451.149 L2.792,439.277 L-0.716,427.404 L-2.89,415.532 L-4.354,403.66 L-3.791,391.787 L-0.622,379.915 L-3.492,368.043 L-5.812,356.17 L-2.239,344.298 L-0.216,332.426 L-1.837,320.553 L0.818,308.681 L4.736,296.809 L5.326,284.936 L6.798,273.064 L6.173,261.191 L3.252,249.319 L3.937,237.447 L4.472,225.574 L0.075,213.702 L0.231,201.83 L-0.487,189.957 L0.013,178.085 L0.891,166.213 L-2.099,154.34 L-3.473,142.468 L-0.204,130.596 L-1.485,118.723 L0.919,106.851 L-0.977,94.979 L3.642,83.106 L0.525,71.234 L-1.582,59.362 L1.695,47.489 L-0.331,35.617 L1.807,23.745 L0.191,11.872 Z" fill="none" stroke="#fff9e8" stroke-width="1.4" opacity=".75"/></g><path d="M1306.84 8.553l1.504 2.261l0.451 -1.809" fill="none" stroke="#9a7e57" stroke-width="0.482" opacity="0.261"/><path d="M284.423 557.372l8.077 2.707l2.423 -2.166" fill="none" stroke="#9a7e57" stroke-width="1.581" opacity="0.137"/><path d="M17.823 46.464l11.527 0.791l3.458 -0.633" fill="none" stroke="#9a7e57" stroke-width="1.33" opacity="0.353"/><path d="M1472.586 432.985l6.333 1.414l1.9 -1.131" fill="none" stroke="#9a7e57" stroke-width="1.047" opacity="0.251"/><path d="M1310.384 4.018l1.259 2.893l0.378 -2.315" fill="none" stroke="#9a7e57" stroke-width="1.38" opacity="0.204"/><path d="M1113.049 554.43l10.749 1.142l3.225 -0.914" fill="none" stroke="#9a7e57" stroke-width="1.059" opacity="0.106"/><path d="M1.851 373.137l8.662 1.086l2.599 -0.869" fill="none" stroke="#9a7e57" stroke-width="1.471" opacity="0.417"/><path d="M1474.588 101.28l11.115 2.074l3.335 -1.659" fill="none" stroke="#9a7e57" stroke-width="1.839" opacity="0.31"/><path d="M1204.319 7.088l8.512 0.619l2.554 -0.495" fill="none" stroke="#9a7e57" stroke-width="1.229" opacity="0.167"/><path d="M689.802 555.673l0.729 0.92l0.219 -0.736" fill="none" stroke="#9a7e57" stroke-width="1.037" opacity="0.217"/><path d="M4.038 434.62l5.561 2.807l1.668 -2.246" fill="none" stroke="#9a7e57" stroke-width="1.807" opacity="0.134"/><path d="M1453.985 209.791l4.738 0.567l1.421 -0.454" fill="none" stroke="#9a7e57" stroke-width="0.868" opacity="0.3"/><path d="M269.037 1.058l1.759 1.019l0.528 -0.815" fill="none" stroke="#9a7e57" stroke-width="0.681" opacity="0.243"/><path d="M289.011 548.17l11.32 2.834l3.396 -2.268" fill="none" stroke="#9a7e57" stroke-width="1.072" opacity="0.143"/><path d="M14.54 22.067l6.848 2.886l2.054 -2.309" fill="none" stroke="#9a7e57" stroke-width="1.418" opacity="0.132"/><path d="M1471.603 422.815l12.516 1.953l3.755 -1.562" fill="none" stroke="#9a7e57" stroke-width="0.841" opacity="0.176"/><path d="M1452.711 19.714l0.638 2.896l0.191 -2.317" fill="none" stroke="#9a7e57" stroke-width="0.574" opacity="0.149"/><path d="M533.658 552.469l4.53 2.015l1.359 -1.612" fill="none" stroke="#9a7e57" stroke-width="0.958" opacity="0.081"/><path d="M14.432 99.883l10.278 2.695l3.083 -2.156" fill="none" stroke="#9a7e57" stroke-width="0.986" opacity="0.102"/><path d="M1463.598 62.746l4.304 2.255l1.291 -1.804" fill="none" stroke="#9a7e57" stroke-width="1.25" opacity="0.112"/><path d="M536.387 4.458l0.842 2.005l0.253 -1.604" fill="none" stroke="#9a7e57" stroke-width="0.864" opacity="0.188"/><path d="M1461.641 543.757l10.179 2.161l3.054 -1.729" fill="none" stroke="#9a7e57" stroke-width="0.754" opacity="0.143"/><path d="M4.54 36.429l12.526 1.231l3.758 -0.985" fill="none" stroke="#9a7e57" stroke-width="2" opacity="0.116"/><path d="M1473.53 266.872l5.471 1.524l1.641 -1.219" fill="none" stroke="#9a7e57" stroke-width="1.639" opacity="0.142"/><path d="M97.509 3.815l8.787 2.43l2.636 -1.944" fill="none" stroke="#9a7e57" stroke-width="0.944" opacity="0.373"/><path d="M102.972 547.63l10.745 1.181l3.223 -0.945" fill="none" stroke="#9a7e57" stroke-width="1.338" opacity="0.09"/><path d="M8.149 170.607l6.725 0.943l2.018 -0.754" fill="none" stroke="#9a7e57" stroke-width="0.531" opacity="0.093"/><path d="M1459.564 41.054l1.63 0.804l0.489 -0.644" fill="none" stroke="#9a7e57" stroke-width="1.992" opacity="0.174"/><path d="M1071.881 11.314l8.023 0.626l2.407 -0.501" fill="none" stroke="#9a7e57" stroke-width="1.336" opacity="0.416"/><path d="M317.91 536.498l3.966 0.74l1.19 -0.592" fill="none" stroke="#9a7e57" stroke-width="2.09" opacity="0.118"/><path d="M3.582 228.317l7.757 1.229l2.327 -0.983" fill="none" stroke="#9a7e57" stroke-width="1.1" opacity="0.148"/><path d="M1468.79 160.277l9.11 0.507l2.733 -0.406" fill="none" stroke="#9a7e57" stroke-width="1.969" opacity="0.351"/><path d="M1414.067 13.735l1.397 2.111l0.419 -1.689" fill="none" stroke="#9a7e57" stroke-width="1.67" opacity="0.255"/><path d="M971.033 544.613l3.196 2.206l0.959 -1.765" fill="none" stroke="#9a7e57" stroke-width="0.813" opacity="0.301"/><path d="M6.661 284.786l9.29 2.083l2.787 -1.666" fill="none" stroke="#9a7e57" stroke-width="1.317" opacity="0.1"/><path d="M1474.677 408.075l11.187 2.692l3.356 -2.154" fill="none" stroke="#9a7e57" stroke-width="0.655" opacity="0.088"/><path d="M381.23 7.746l8.969 0.819l2.691 -0.655" fill="none" stroke="#9a7e57" stroke-width="1.746" opacity="0.42"/><path d="M791.249 539.721l11.502 1.518l3.451 -1.214" fill="none" stroke="#9a7e57" stroke-width="0.977" opacity="0.398"/><path d="M17.034 366.778l4.568 2.893l1.37 -2.315" fill="none" stroke="#9a7e57" stroke-width="1.709" opacity="0.198"/><path d="M1471.647 198.828l12.058 2.255l3.617 -1.804" fill="none" stroke="#9a7e57" stroke-width="1.954" opacity="0.177"/><path d="M1065.408 6.901l9.678 1.104l2.904 -0.883" fill="none" stroke="#9a7e57" stroke-width="0.573" opacity="0.226"/><path d="M742.743 557.339l5.517 0.441l1.655 -0.353" fill="none" stroke="#9a7e57" stroke-width="0.802" opacity="0.358"/><path d="M4.388 368.676l10.95 1.411l3.285 -1.129" fill="none" stroke="#9a7e57" stroke-width="1.624" opacity="0.339"/><path d="M1474.769 350.946l4.568 2.016l1.37 -1.613" fill="none" stroke="#9a7e57" stroke-width="1.808" opacity="0.165"/><path d="M849.224 17.021l6.752 2.404l2.026 -1.923" fill="none" stroke="#9a7e57" stroke-width="1.89" opacity="0.226"/><path d="M956.861 547.658l1.042 1.743l0.313 -1.394" fill="none" stroke="#9a7e57" stroke-width="1.567" opacity="0.17"/><path d="M0.527 282.436l2.2 2.859l0.66 -2.287" fill="none" stroke="#9a7e57" stroke-width="1.62" opacity="0.151"/><path d="M1468.589 430.912l7.687 1.725l2.306 -1.38" fill="none" stroke="#9a7e57" stroke-width="1.447" opacity="0.163"/><path d="M760.04 1.948l0.873 1.562l0.262 -1.249" fill="none" stroke="#9a7e57" stroke-width="0.667" opacity="0.097"/><path d="M1074.933 551.068l8.398 0.77l2.519 -0.616" fill="none" stroke="#9a7e57" stroke-width="1.152" opacity="0.409"/><path d="M11.33 183.422l12.523 1.707l3.757 -1.366" fill="none" stroke="#9a7e57" stroke-width="0.432" opacity="0.295"/><path d="M1459.077 38.211l5.735 0.961l1.721 -0.769" fill="none" stroke="#9a7e57" stroke-width="0.772" opacity="0.301"/><path d="M1272.542 15.674l3.093 2.799l0.928 -2.239" fill="none" stroke="#9a7e57" stroke-width="1.594" opacity="0.122"/><path d="M1052.034 542.314l9.525 0.93l2.858 -0.744" fill="none" stroke="#9a7e57" stroke-width="1.713" opacity="0.09"/><path d="M12.582 530.114l4.358 1.104l1.307 -0.883" fill="none" stroke="#9a7e57" stroke-width="1.822" opacity="0.211"/><path d="M1474.699 125.132l5.363 0.948l1.609 -0.759" fill="none" stroke="#9a7e57" stroke-width="0.771" opacity="0.209"/></g></svg>