<svg xmlns="http://www.w3.org/2000/svg" width="1080" height="1350" viewBox="1080 0 1080 1350"><defs><filter id="shadow" x="-40%" y="-40%" width="190%" height="200%"><feDropShadow dx="0" dy="10" stdDeviation="12" flood-color="#1b1713" flood-opacity=".2"/></filter>
 <filter id="small-shadow" x="-30%" y="-30%" width="160%" height="180%"><feDropShadow dx="1" dy="4" stdDeviation="3" flood-color="#241e17" flood-opacity=".22"/></filter>
 <linearGradient id="chrome" x1="0" y1="0" x2="1" y2="1"><stop stop-color="#55566a"/><stop offset=".16" stop-color="#e6e7ec"/><stop offset=".38" stop-color="#acaaba"/><stop offset=".52" stop-color="#fff"/><stop offset=".7" stop-color="#8d8c9b"/><stop offset="1" stop-color="#d9d5e6"/></linearGradient>
 <linearGradient id="holo" x1="0" y1="0" x2="1" y2="1"><stop stop-color="#b7e6e5"/><stop offset=".24" stop-color="#f7bad5"/><stop offset=".48" stop-color="#e9e8a3"/><stop offset=".74" stop-color="#a3cced"/><stop offset="1" stop-color="#d1b1ed"/></linearGradient>
 <linearGradient id="light-leak"><stop stop-color="#ea411b" stop-opacity=".4"/><stop offset=".16" stop-color="#faad31" stop-opacity=".12"/><stop offset=".4" stop-color="#ea411b" stop-opacity="0"/></linearGradient>
 <linearGradient id="bookshade"><stop stop-color="#20190f" stop-opacity=".15"/><stop offset=".06" stop-color="#fff" stop-opacity=".1"/><stop offset=".92" stop-color="#fff" stop-opacity="0"/><stop offset="1" stop-color="#20190f" stop-opacity=".2"/></linearGradient>
 <pattern id="grain" width="170" height="170" patternUnits="userSpaceOnUse"><circle cx="91.7" cy="35.5" r="0.47" fill="#fff" opacity="0.08"/><circle cx="95.3" cy="56.4" r="0.57" fill="#17120d" opacity="0.05"/><circle cx="54.9" cy="86.1" r="0.70" fill="#17120d" opacity="0.06"/><circle cx="88.3" cy="35.1" r="0.66" fill="#fff" opacity="0.04"/><circle cx="80.6" cy="33.7" r="0.87" fill="#17120d" opacity="0.05"/><circle cx="162.3" cy="114.6" r="0.64" fill="#17120d" opacity="0.06"/><circle cx="139.0" cy="129.5" r="0.73" fill="#fff" opacity="0.07"/><circle cx="128.9" cy="148.2" r="0.85" fill="#17120d" opacity="0.06"/><circle cx="115.8" cy="97.9" r="0.78" fill="#17120d" opacity="0.06"/><circle cx="76.6" cy="166.2" r="0.67" fill="#fff" opacity="0.05"/><circle cx="7.0" cy="131.7" r="0.42" fill="#17120d" opacity="0.04"/><circle cx="60.7" cy="79.5" r="0.65" fill="#17120d" opacity="0.08"/><circle cx="38.4" cy="70.4" r="0.65" fill="#fff" opacity="0.08"/><circle cx="58.5" cy="117.2" r="0.93" fill="#17120d" opacity="0.05"/><circle cx="31.0" cy="161.3" r="0.92" fill="#17120d" opacity="0.11"/><circle cx="20.0" cy="127.1" r="0.82" fill="#fff" opacity="0.11"/><circle cx="52.5" cy="4.3" r="0.66" fill="#17120d" opacity="0.05"/><circle cx="14.1" cy="118.9" r="0.56" fill="#17120d" opacity="0.09"/><circle cx="143.5" cy="99.1" r="0.82" fill="#fff" opacity="0.08"/><circle cx="131.2" cy="11.2" r="0.36" fill="#17120d" opacity="0.07"/><circle cx="140.4" cy="46.5" r="0.82" fill="#17120d" opacity="0.06"/><circle cx="140.2" cy="110.9" r="0.88" fill="#fff" opacity="0.09"/><circle cx="103.1" cy="31.4" r="0.85" fill="#17120d" opacity="0.06"/><circle cx="92.5" cy="116.5" r="0.44" fill="#17120d" opacity="0.05"/><circle cx="158.5" cy="150.6" r="0.91" fill="#fff" opacity="0.06"/><circle cx="0.4" cy="44.0" r="0.80" fill="#17120d" opacity="0.08"/><circle cx="100.3" cy="132.7" r="0.57" fill="#17120d" opacity="0.08"/><circle cx="121.8" cy="16.0" r="0.54" fill="#fff" opacity="0.06"/><circle cx="102.9" cy="130.7" r="0.63" fill="#17120d" opacity="0.07"/><circle cx="150.6" cy="103.9" r="0.87" fill="#17120d" opacity="0.09"/><circle cx="3.0" cy="39.3" r="0.42" fill="#fff" opacity="0.09"/><circle cx="32.0" cy="53.6" r="0.45" fill="#17120d" opacity="0.06"/><circle cx="34.7" cy="53.6" r="0.86" fill="#17120d" opacity="0.08"/><circle cx="24.4" cy="83.9" r="0.62" fill="#fff" opacity="0.09"/><circle cx="132.2" cy="92.2" r="0.46" fill="#17120d" opacity="0.06"/><circle cx="6.4" cy="37.8" r="0.95" fill="#17120d" opacity="0.04"/><circle cx="6.2" cy="122.7" r="0.49" fill="#fff" opacity="0.05"/><circle cx="69.2" cy="118.0" r="0.63" fill="#17120d" opacity="0.05"/><circle cx="167.5" cy="30.4" r="0.37" fill="#17120d" opacity="0.09"/><circle cx="15.1" cy="144.2" r="0.62" fill="#fff" opacity="0.10"/><circle cx="155.7" cy="50.6" r="0.34" fill="#17120d" opacity="0.10"/><circle cx="141.4" cy="54.4" r="0.58" fill="#17120d" opacity="0.09"/><circle cx="93.0" cy="63.6" r="0.82" fill="#fff" opacity="0.07"/><circle cx="79.9" cy="119.0" r="0.41" fill="#17120d" opacity="0.11"/><circle cx="124.2" cy="132.7" r="0.62" fill="#17120d" opacity="0.08"/><circle cx="112.1" cy="18.1" r="0.57" fill="#fff" opacity="0.04"/><circle cx="122.5" cy="75.8" r="0.93" fill="#17120d" opacity="0.08"/><circle cx="30.2" cy="12.1" r="0.43" fill="#17120d" opacity="0.07"/><circle cx="0.1" cy="109.9" r="0.32" fill="#fff" opacity="0.10"/><circle cx="133.0" cy="124.6" r="0.59" fill="#17120d" opacity="0.10"/><circle cx="115.4" cy="18.3" r="0.85" fill="#17120d" opacity="0.10"/><circle cx="108.7" cy="60.1" r="0.67" fill="#fff" opacity="0.05"/><circle cx="75.2" cy="71.9" r="0.49" fill="#17120d" opacity="0.07"/><circle cx="51.7" cy="22.6" r="0.45" fill="#17120d" opacity="0.10"/><circle cx="12.4" cy="132.6" r="0.57" fill="#fff" opacity="0.10"/><circle cx="46.8" cy="59.5" r="0.33" fill="#17120d" opacity="0.07"/><circle cx="90.3" cy="0.5" r="0.35" fill="#17120d" opacity="0.07"/><circle cx="17.5" cy="137.0" r="0.57" fill="#fff" opacity="0.10"/><circle cx="101.0" cy="153.8" r="0.57" fill="#17120d" opacity="0.05"/><circle cx="10.6" cy="99.8" r="0.55" fill="#17120d" opacity="0.08"/><circle cx="10.9" cy="162.2" r="0.66" fill="#fff" opacity="0.05"/><circle cx="66.9" cy="22.8" r="0.67" fill="#17120d" opacity="0.05"/><circle cx="90.9" cy="43.4" r="0.54" fill="#17120d" opacity="0.07"/><circle cx="16.1" cy="106.8" r="0.45" fill="#fff" opacity="0.07"/><circle cx="122.7" cy="142.1" r="0.44" fill="#17120d" opacity="0.05"/><circle cx="49.3" cy="117.3" r="0.47" fill="#17120d" opacity="0.08"/><circle cx="60.2" cy="43.0" r="0.80" fill="#fff" opacity="0.08"/><circle cx="25.0" cy="65.4" r="0.52" fill="#17120d" opacity="0.08"/><circle cx="107.2" cy="86.3" r="0.94" fill="#17120d" opacity="0.06"/><circle cx="62.7" cy="93.7" r="0.38" fill="#fff" opacity="0.08"/><circle cx="40.4" cy="46.8" r="0.30" fill="#17120d" opacity="0.11"/><circle cx="40.5" cy="73.0" r="0.62" fill="#17120d" opacity="0.06"/><circle cx="157.6" cy="75.4" r="0.47" fill="#fff" opacity="0.09"/><circle cx="39.3" cy="104.2" r="0.88" fill="#17120d" opacity="0.06"/><circle cx="112.4" cy="165.0" r="0.62" fill="#17120d" opacity="0.06"/><circle cx="32.5" cy="52.3" r="0.73" fill="#fff" opacity="0.07"/><circle cx="53.9" cy="7.6" r="0.95" fill="#17120d" opacity="0.09"/><circle cx="11.0" cy="153.2" r="0.65" fill="#17120d" opacity="0.05"/><circle cx="162.2" cy="96.9" r="0.79" fill="#fff" opacity="0.06"/><circle cx="33.8" cy="144.9" r="0.34" fill="#17120d" opacity="0.06"/><circle cx="109.2" cy="161.8" r="0.80" fill="#17120d" opacity="0.09"/><circle cx="34.9" cy="150.2" r="0.45" fill="#fff" opacity="0.04"/><circle cx="146.0" cy="34.3" r="0.57" fill="#17120d" opacity="0.06"/><circle cx="65.2" cy="84.0" r="0.38" fill="#17120d" opacity="0.04"/><circle cx="74.6" cy="60.4" r="0.83" fill="#fff" opacity="0.08"/><circle cx="119.6" cy="132.9" r="0.63" fill="#17120d" opacity="0.10"/><circle cx="16.5" cy="34.0" r="0.51" fill="#17120d" opacity="0.09"/><circle cx="61.3" cy="97.9" r="0.74" fill="#fff" opacity="0.06"/><circle cx="85.6" cy="53.2" r="0.36" fill="#17120d" opacity="0.10"/><circle cx="149.9" cy="150.7" r="0.45" fill="#17120d" opacity="0.08"/><circle cx="158.0" cy="71.4" r="0.70" fill="#fff" opacity="0.10"/><circle cx="136.4" cy="112.6" r="0.92" fill="#17120d" opacity="0.04"/><circle cx="76.9" cy="9.7" r="0.56" fill="#17120d" opacity="0.06"/><circle cx="153.1" cy="147.3" r="0.79" fill="#fff" opacity="0.06"/><circle cx="122.5" cy="93.7" r="0.76" fill="#17120d" opacity="0.05"/><circle cx="169.7" cy="145.6" r="0.72" fill="#17120d" opacity="0.05"/><circle cx="48.7" cy="52.7" r="0.52" fill="#fff" opacity="0.07"/><circle cx="54.4" cy="14.4" r="0.86" fill="#17120d" opacity="0.07"/><circle cx="84.7" cy="72.6" r="0.59" fill="#17120d" opacity="0.04"/><circle cx="71.1" cy="18.4" r="0.92" fill="#fff" opacity="0.09"/><circle cx="162.1" cy="101.3" r="0.61" fill="#17120d" opacity="0.10"/><circle cx="112.3" cy="154.4" r="0.93" fill="#17120d" opacity="0.10"/><circle cx="88.3" cy="57.8" r="0.37" fill="#fff" opacity="0.10"/><circle cx="47.0" cy="89.9" r="0.77" fill="#17120d" opacity="0.05"/><circle cx="154.6" cy="94.0" r="0.53" fill="#17120d" opacity="0.11"/><circle cx="164.8" cy="3.6" r="0.36" fill="#fff" opacity="0.08"/><circle cx="141.0" cy="59.9" r="0.64" fill="#17120d" opacity="0.11"/><circle cx="15.6" cy="119.7" r="0.57" fill="#17120d" opacity="0.05"/><circle cx="115.8" cy="41.8" r="0.66" fill="#fff" opacity="0.10"/><circle cx="64.5" cy="125.4" r="0.90" fill="#17120d" opacity="0.07"/><circle cx="140.8" cy="103.7" r="0.34" fill="#17120d" opacity="0.09"/><circle cx="42.8" cy="1.0" r="0.45" fill="#fff" opacity="0.09"/><circle cx="73.0" cy="81.5" r="0.80" fill="#17120d" opacity="0.10"/><circle cx="114.3" cy="53.5" r="0.90" fill="#17120d" opacity="0.04"/><circle cx="140.9" cy="111.1" r="0.79" fill="#fff" opacity="0.06"/><circle cx="97.6" cy="153.5" r="0.40" fill="#17120d" opacity="0.10"/><circle cx="87.0" cy="18.6" r="0.88" fill="#17120d" opacity="0.11"/><circle cx="143.3" cy="44.8" r="0.53" fill="#fff" opacity="0.10"/><circle cx="105.9" cy="124.5" r="0.51" fill="#17120d" opacity="0.09"/><circle cx="147.9" cy="47.2" r="0.94" fill="#17120d" opacity="0.06"/><circle cx="7.6" cy="60.5" r="0.31" fill="#fff" opacity="0.08"/><circle cx="112.2" cy="112.7" r="0.53" fill="#17120d" opacity="0.06"/><circle cx="7.1" cy="19.8" r="0.48" fill="#17120d" opacity="0.05"/><circle cx="86.1" cy="124.8" r="0.61" fill="#fff" opacity="0.08"/><circle cx="79.1" cy="19.8" r="0.64" fill="#17120d" opacity="0.09"/><circle cx="38.8" cy="80.4" r="0.31" fill="#17120d" opacity="0.07"/><circle cx="88.3" cy="69.3" r="0.91" fill="#fff" opacity="0.08"/><circle cx="164.6" cy="155.3" r="0.51" fill="#17120d" opacity="0.09"/><circle cx="16.1" cy="47.1" r="0.44" fill="#17120d" opacity="0.07"/><circle cx="94.1" cy="143.3" r="0.57" fill="#fff" opacity="0.09"/><circle cx="111.4" cy="145.2" r="0.63" fill="#17120d" opacity="0.07"/><circle cx="71.6" cy="137.0" r="0.46" fill="#17120d" opacity="0.06"/><circle cx="119.0" cy="4.3" r="0.47" fill="#fff" opacity="0.09"/><circle cx="17.5" cy="73.2" r="0.76" fill="#17120d" opacity="0.06"/><circle cx="131.9" cy="112.7" r="0.42" fill="#17120d" opacity="0.07"/><circle cx="46.6" cy="10.4" r="0.35" fill="#fff" opacity="0.04"/><circle cx="9.9" cy="28.0" r="0.52" fill="#17120d" opacity="0.08"/><circle cx="62.4" cy="120.4" r="0.41" fill="#17120d" opacity="0.05"/><circle cx="84.5" cy="52.7" r="0.40" fill="#fff" opacity="0.10"/><circle cx="126.1" cy="51.7" r="0.82" fill="#17120d" opacity="0.10"/><circle cx="87.8" cy="72.0" r="0.72" fill="#17120d" opacity="0.07"/><circle cx="72.2" cy="47.5" r="0.45" fill="#fff" opacity="0.06"/><circle cx="49.0" cy="145.3" r="0.73" fill="#17120d" opacity="0.09"/><circle cx="69.1" cy="75.7" r="0.71" fill="#17120d" opacity="0.06"/><circle cx="94.6" cy="130.9" r="0.33" fill="#fff" opacity="0.06"/><circle cx="85.6" cy="32.4" r="0.71" fill="#17120d" opacity="0.07"/><circle cx="5.8" cy="43.0" r="0.38" fill="#17120d" opacity="0.06"/><circle cx="132.9" cy="168.9" r="0.32" fill="#fff" opacity="0.10"/><circle cx="60.5" cy="123.1" r="0.32" fill="#17120d" opacity="0.07"/><circle cx="92.3" cy="41.1" r="0.55" fill="#17120d" opacity="0.05"/><circle cx="101.3" cy="113.5" r="0.41" fill="#fff" opacity="0.09"/><circle cx="148.5" cy="62.7" r="0.85" fill="#17120d" opacity="0.04"/><circle cx="59.5" cy="114.1" r="0.83" fill="#17120d" opacity="0.10"/><circle cx="128.7" cy="51.2" r="0.89" fill="#fff" opacity="0.10"/><circle cx="63.9" cy="132.9" r="0.73" fill="#17120d" opacity="0.07"/><circle cx="126.6" cy="36.7" r="0.51" fill="#17120d" opacity="0.06"/><circle cx="135.6" cy="29.1" r="0.61" fill="#fff" opacity="0.10"/><circle cx="33.4" cy="104.8" r="0.31" fill="#17120d" opacity="0.08"/><circle cx="149.2" cy="19.2" r="0.84" fill="#17120d" opacity="0.08"/><circle cx="12.8" cy="121.4" r="0.39" fill="#fff" opacity="0.09"/><circle cx="57.8" cy="46.8" r="0.87" fill="#17120d" opacity="0.06"/><circle cx="53.0" cy="21.8" r="0.35" fill="#17120d" opacity="0.07"/><circle cx="46.0" cy="54.9" r="0.46" fill="#fff" opacity="0.10"/><circle cx="123.5" cy="151.7" r="0.67" fill="#17120d" opacity="0.07"/><circle cx="96.1" cy="142.0" r="0.86" fill="#17120d" opacity="0.07"/><circle cx="87.6" cy="132.8" r="0.93" fill="#fff" opacity="0.05"/><circle cx="161.8" cy="90.5" r="0.94" fill="#17120d" opacity="0.06"/><circle cx="51.3" cy="159.9" r="0.57" fill="#17120d" opacity="0.06"/><circle cx="96.8" cy="139.0" r="0.45" fill="#fff" opacity="0.09"/><circle cx="126.5" cy="142.4" r="0.45" fill="#17120d" opacity="0.04"/><circle cx="18.5" cy="107.3" r="0.70" fill="#17120d" opacity="0.07"/><circle cx="121.0" cy="88.6" r="0.43" fill="#fff" opacity="0.10"/><circle cx="88.4" cy="104.6" r="0.83" fill="#17120d" opacity="0.05"/><circle cx="3.5" cy="32.5" r="0.36" fill="#17120d" opacity="0.11"/><circle cx="47.6" cy="100.9" r="0.49" fill="#fff" opacity="0.07"/><circle cx="124.7" cy="14.5" r="0.37" fill="#17120d" opacity="0.08"/><circle cx="37.4" cy="61.4" r="0.69" fill="#17120d" opacity="0.05"/><circle cx="3.2" cy="114.9" r="0.63" fill="#fff" opacity="0.05"/><circle cx="156.5" cy="134.1" r="0.81" fill="#17120d" opacity="0.07"/><circle cx="98.0" cy="30.5" r="0.40" fill="#17120d" opacity="0.09"/><circle cx="113.2" cy="40.6" r="0.77" fill="#fff" opacity="0.07"/><circle cx="106.0" cy="64.7" r="0.47" fill="#17120d" opacity="0.09"/><circle cx="163.5" cy="49.9" r="0.70" fill="#17120d" opacity="0.08"/><circle cx="75.2" cy="129.9" r="0.40" fill="#fff" opacity="0.10"/><circle cx="104.6" cy="135.4" r="0.65" fill="#17120d" opacity="0.09"/><circle cx="83.9" cy="163.9" r="0.32" fill="#17120d" opacity="0.10"/><circle cx="64.0" cy="35.0" r="0.32" fill="#fff" opacity="0.10"/><circle cx="15.0" cy="88.8" r="0.87" fill="#17120d" opacity="0.05"/><circle cx="24.8" cy="44.3" r="0.78" fill="#17120d" opacity="0.07"/><circle cx="106.3" cy="163.5" r="0.55" fill="#fff" opacity="0.06"/><circle cx="125.7" cy="162.7" r="0.39" fill="#17120d" opacity="0.04"/><circle cx="66.3" cy="29.2" r="0.31" fill="#17120d" opacity="0.08"/><circle cx="37.3" cy="143.5" r="0.52" fill="#fff" opacity="0.05"/><circle cx="155.5" cy="17.7" r="0.92" fill="#17120d" opacity="0.06"/><circle cx="134.2" cy="105.9" r="0.88" fill="#17120d" opacity="0.09"/><circle cx="153.7" cy="132.9" r="0.51" fill="#fff" opacity="0.04"/><circle cx="41.6" cy="10.9" r="0.81" fill="#17120d" opacity="0.07"/><circle cx="122.3" cy="106.2" r="0.54" fill="#17120d" opacity="0.08"/><circle cx="168.9" cy="40.4" r="0.47" fill="#fff" opacity="0.08"/><circle cx="73.0" cy="13.6" r="0.73" fill="#17120d" opacity="0.07"/><circle cx="108.4" cy="8.6" r="0.32" fill="#17120d" opacity="0.08"/><circle cx="71.5" cy="97.7" r="0.58" fill="#fff" opacity="0.09"/><circle cx="18.7" cy="18.0" r="0.43" fill="#17120d" opacity="0.10"/><circle cx="97.1" cy="130.9" r="0.95" fill="#17120d" opacity="0.09"/><circle cx="65.7" cy="146.4" r="0.66" fill="#fff" opacity="0.07"/><circle cx="167.9" cy="23.2" r="0.38" fill="#17120d" opacity="0.09"/><circle cx="127.2" cy="19.6" r="0.76" fill="#17120d" opacity="0.07"/><circle cx="51.6" cy="142.7" r="0.68" fill="#fff" opacity="0.10"/><circle cx="104.4" cy="134.7" r="0.59" fill="#17120d" opacity="0.08"/><circle cx="91.7" cy="158.7" r="0.73" fill="#17120d" opacity="0.09"/><circle cx="158.6" cy="8.4" r="0.95" fill="#fff" opacity="0.07"/><circle cx="90.0" cy="148.9" r="0.88" fill="#17120d" opacity="0.08"/><circle cx="23.4" cy="117.6" r="0.62" fill="#17120d" opacity="0.08"/><circle cx="153.9" cy="58.6" r="0.69" fill="#fff" opacity="0.05"/><circle cx="113.2" cy="153.0" r="0.57" fill="#17120d" opacity="0.05"/><circle cx="109.9" cy="64.2" r="0.81" fill="#17120d" opacity="0.07"/><circle cx="6.0" cy="46.3" r="0.42" fill="#fff" opacity="0.06"/><circle cx="32.3" cy="138.7" r="0.85" fill="#17120d" opacity="0.05"/><circle cx="83.3" cy="30.3" r="0.71" fill="#17120d" opacity="0.10"/><circle cx="18.2" cy="11.3" r="0.63" fill="#fff" opacity="0.05"/><circle cx="34.8" cy="71.9" r="0.83" fill="#17120d" opacity="0.11"/><circle cx="57.0" cy="29.4" r="0.79" fill="#17120d" opacity="0.08"/><circle cx="8.6" cy="38.9" r="0.70" fill="#fff" opacity="0.10"/><circle cx="167.0" cy="34.2" r="0.82" fill="#17120d" opacity="0.10"/><circle cx="157.7" cy="88.9" r="0.67" fill="#17120d" opacity="0.05"/><circle cx="116.0" cy="159.0" r="0.42" fill="#fff" opacity="0.10"/><circle cx="111.6" cy="92.2" r="0.77" fill="#17120d" opacity="0.07"/><circle cx="89.1" cy="151.0" r="0.88" fill="#17120d" opacity="0.05"/><circle cx="73.6" cy="127.7" r="0.64" fill="#fff" opacity="0.07"/><circle cx="90.8" cy="106.2" r="0.66" fill="#17120d" opacity="0.09"/></pattern>
 <pattern id="ruled" width="42" height="42" patternUnits="userSpaceOnUse"><path d="M0 41.5H42" fill="none" stroke="#253644" stroke-opacity=".1"/></pattern>
 <pattern id="grid" width="40" height="40" patternUnits="userSpaceOnUse"><path d="M40 0H0V40" fill="none" stroke="#253644" stroke-opacity=".12" stroke-width="1"/></pattern>
 <pattern id="dots" width="13" height="13" patternUnits="userSpaceOnUse"><circle cx="3" cy="3" r="1.8" fill="#253644" opacity=".17"/></pattern>
 <pattern id="gingham" width="100" height="100" patternUnits="userSpaceOnUse"><rect width="50" height="100" fill="#ac4c34" opacity=".12"/><rect width="100" height="50" fill="#ac4c34" opacity=".12"/></pattern>
 <pattern id="scanlines" width="6" height="6" patternUnits="userSpaceOnUse"><rect width="6" height="2" fill="#111" opacity=".15"/></pattern>
 <pattern id="placeholder" width="30" height="30" patternUnits="userSpaceOnUse"><path d="M0 30L30 0" stroke="#253644" opacity=".065"/></pattern><clipPath id="clip-01-atlas--photo-01" clipPathUnits="userSpaceOnUse"><rect width="600" height="570" rx="0" fill="white" stroke="none" stroke-width="0"/></clipPath><clipPath id="clip-01-atlas--photo-02" clipPathUnits="userSpaceOnUse"><rect width="1530" height="720" rx="0" fill="white" stroke="none" stroke-width="0"/></clipPath><clipPath id="clip-01-atlas--photo-03" clipPathUnits="userSpaceOnUse"><path d="M0.00 6.39L20.00 -5.72L40.00 -2.39L60.00 4.07L80.00 -2.25L100.00 5.33L120.00 -0.85L140.00 -3.61L160.00 6.42L180.00 0.64L200.00 -5.10L220.00 -0.83L240.00 0.21L260.00 6.21L280.00 -6.30L300.00 5.65L320.00 -3.83L340.00 5.68L360.00 -2.28L380.00 6.24L379.39 20.00L379.94 40.00L382.39 60.00L373.61 80.00L384.17 100.00L378.12 120.00L374.43 140.00L381.84 160.00L384.64 180.00L377.08 200.00L381.08 220.00L378.12 240.00L384.77 260.00L376.56 280.00L379.65 300.00L360.00 294.32L340.00 294.44L320.00 296.79L300.00 294.14L280.00 295.15L260.00 304.82L240.00 306.12L220.00 296.43L200.00 300.89L180.00 295.40L160.00 299.05L140.00 304.26L120.00 299.83L100.00 304.37L80.00 301.74L60.00 306.12L40.00 305.99L20.00 296.19L0.00 304.68L-5.28 280.00L5.69 260.00L0.49 240.00L3.40 220.00L-0.35 200.00L5.00 180.00L-4.32 160.00L3.17 140.00L-2.67 120.00L-3.70 100.00L-4.95 80.00L-3.89 60.00L1.52 40.00L3.27 20.00Z" fill="white" stroke="none" stroke-width="0"/></clipPath><clipPath id="clip-01-atlas--photo-04" clipPathUnits="userSpaceOnUse"><path d="M0.00 -4.65L19.79 -2.03L39.57 2.18L59.36 -3.74L79.15 1.07L98.94 3.51L118.72 -5.09L138.51 1.37L158.30 4.99L178.09 5.15L197.87 1.39L217.66 4.27L237.45 0.20L257.23 -3.45L277.02 4.35L296.81 -3.31L316.60 3.67L336.38 4.55L356.17 -0.34L375.96 5.69L395.74 -2.78L415.53 -0.84L435.32 -1.24L455.11 5.25L474.89 -0.15L494.68 -3.64L514.47 -3.77L534.26 -6.06L554.04 5.06L573.83 -1.18L593.62 -4.41L613.40 2.58L633.19 1.24L652.98 -4.91L672.77 -5.83L692.55 -6.34L712.34 -2.87L732.13 -6.35L751.91 0.59L771.70 -4.91L791.49 4.08L811.28 -6.03L831.06 5.25L850.85 -5.55L870.64 -5.52L890.43 -5.45L910.21 -3.17L930.00 -5.15L932.68 19.57L928.36 39.14L933.68 58.70L929.13 78.27L934.27 97.84L935.42 117.41L929.61 136.97L934.85 156.54L936.36 176.11L928.26 195.68L927.59 215.24L934.53 234.81L934.57 254.38L924.48 273.95L925.11 293.51L931.86 313.08L928.57 332.65L926.87 352.22L927.42 371.78L935.96 391.35L931.47 410.92L929.57 430.49L926.89 450.05L924.90 469.62L924.47 489.19L934.25 508.76L928.04 528.32L929.09 547.89L932.49 567.46L933.56 587.03L929.21 606.59L933.17 626.16L931.72 645.73L925.96 665.30L930.72 684.86L935.52 704.43L927.31 724.00L910.21 719.87L890.43 720.12L870.64 729.63L850.85 725.62L831.06 729.84L811.28 720.89L791.49 728.81L771.70 721.79L751.91 722.96L732.13 725.45L712.34 729.10L692.55 726.54L672.77 725.83L652.98 728.76L633.19 718.19L613.40 718.36L593.62 718.91L573.83 728.49L554.04 722.95L534.26 720.71L514.47 723.82L494.68 726.69L474.89 717.70L455.11 721.67L435.32 723.13L415.53 728.56L395.74 723.32L375.96 726.28L356.17 723.62L336.38 730.44L316.60 720.98L296.81 720.55L277.02 719.05L257.23 718.43L237.45 722.92L217.66 719.70L197.87 726.95L178.09 728.14L158.30 721.63L138.51 725.33L118.72 726.91L98.94 720.43L79.15 723.40L59.36 718.42L39.57 720.49L19.79 720.18L0.00 724.05L3.42 704.43L-3.41 684.86L-4.50 665.30L-1.74 645.73L3.89 626.16L4.02 606.59L-3.16 587.03L1.93 567.46L-5.73 547.89L-6.46 528.32L2.95 508.76L-0.63 489.19L-2.09 469.62L-0.37 450.05L-2.28 430.49L0.28 410.92L4.51 391.35L5.75 371.78L4.14 352.22L-5.05 332.65L-2.75 313.08L-6.08 293.51L-2.90 273.95L-5.04 254.38L-5.40 234.81L-5.24 215.24L-2.17 195.68L-2.72 176.11L-0.44 156.54L-5.62 136.97L3.93 117.41L2.86 97.84L-0.40 78.27L-0.21 58.70L-2.50 39.14L2.77 19.57Z" fill="white" stroke="none" stroke-width="0"/></clipPath><clipPath id="clip-01-atlas--photo-05" clipPathUnits="userSpaceOnUse"><rect width="345" height="238" rx="0" fill="white" stroke="none" stroke-width="0"/></clipPath><clipPath id="clip-01-atlas--photo-06" clipPathUnits="userSpaceOnUse"><rect width="1390" height="657" rx="0" fill="white" stroke="none" stroke-width="0"/></clipPath><clipPath id="clip-01-atlas--photo-07" clipPathUnits="userSpaceOnUse"><rect width="500" height="420" rx="0" fill="white" stroke="none" stroke-width="0"/></clipPath></defs><defs><clipPath id="topo-2"><rect x="1780" y="0" width="1700" height="1350" fill="white" /></clipPath></defs><defs><clipPath id="topo-3"><rect x="4050" y="0" width="1350" height="1350" fill="white" /></clipPath></defs><defs><clipPath id="topo-2"><rect x="1780" y="0" width="1700" height="1350" fill="white" /></clipPath></defs><defs><clipPath id="topo-3"><rect x="4050" y="0" width="1350" height="1350" fill="white" /></clipPath></defs><g transform="translate(2500 160) rotate(1 465 362)"><g transform="translate(-22 -22)" filter="url(#shadow)"><path d="M0.00 2.35L19.88 2.07L39.76 6.35L59.63 -2.69L79.51 6.24L99.39 5.25L119.27 -6.49L139.14 -3.89L159.02 -2.16L178.90 -7.84L198.78 3.41L218.65 6.77L238.53 -7.95L258.41 6.04L278.29 -1.02L298.16 8.99L318.04 2.14L337.92 5.14L357.80 -2.83L377.67 -2.03L397.55 -8.07L417.43 0.03L437.31 3.55L457.18 -4.55L477.06 0.42L496.94 -8.48L516.82 -7.23L536.69 -0.09L556.57 6.90L576.45 1.03L596.33 0.43L616.20 7.86L636.08 -8.59L655.96 3.32L675.84 0.32L695.71 8.71L715.59 1.83L735.47 8.46L755.35 1.72L775.22 3.95L795.10 7.41L814.98 4.09L834.86 -4.46L854.73 -1.75L874.61 6.93L894.49 -4.37L914.37 -4.85L934.24 4.21L954.12 0.40L974.00 8.62L981.57 19.69L973.32 39.38L969.46 59.08L967.81 78.77L965.91 98.46L967.90 118.15L982.33 137.85L968.23 157.54L965.83 177.23L969.49 196.92L979.58 216.62L975.79 236.31L977.64 256.00L975.67 275.69L981.47 295.38L971.69 315.08L966.12 334.77L969.54 354.46L976.22 374.15L965.16 393.85L976.50 413.54L968.90 433.23L982.90 452.92L975.79 472.62L971.73 492.31L968.55 512.00L975.25 531.69L981.12 551.38L982.44 571.08L979.51 590.77L977.21 610.46L981.49 630.15L973.77 649.85L977.62 669.54L979.55 689.23L979.02 708.92L971.49 728.62L974.52 748.31L979.16 768.00L954.12 771.72L934.24 762.52L914.37 772.20L894.49 773.44L874.61 766.45L854.73 759.27L834.86 769.23L814.98 768.61L795.10 764.84L775.22 774.02L755.35 775.01L735.47 775.04L715.59 764.96L695.71 771.60L675.84 768.90L655.96 761.55L636.08 759.66L616.20 769.71L596.33 767.68L576.45 766.89L556.57 771.47L536.69 774.16L516.82 773.24L496.94 759.17L477.06 764.11L457.18 775.20L437.31 766.92L417.43 768.58L397.55 767.22L377.67 771.42L357.80 765.37L337.92 767.13L318.04 763.59L298.16 774.22L278.29 759.36L258.41 763.65L238.53 774.40L218.65 768.54L198.78 775.47L178.90 776.98L159.02 772.82L139.14 771.61L119.27 764.99L99.39 768.46L79.51 762.37L59.63 776.52L39.76 767.07L19.88 763.61L0.00 767.46L-0.50 748.31L3.30 728.62L-0.72 708.92L7.55 689.23L-3.60 669.54L3.94 649.85L-3.08 630.15L-2.76 610.46L0.60 590.77L3.91 571.08L-2.51 551.38L-7.12 531.69L6.60 512.00L1.61 492.31L5.54 472.62L0.80 452.92L-3.39 433.23L-2.05 413.54L-5.10 393.85L-7.03 374.15L1.41 354.46L-6.52 334.77L-3.27 315.08L0.08 295.38L-8.25 275.69L4.01 256.00L5.16 236.31L2.81 216.62L-1.42 196.92L1.66 177.23L2.38 157.54L-1.62 137.85L1.40 118.15L-1.28 98.46L-4.63 78.77L-5.89 59.08L-7.97 39.38L-7.72 19.69Z" fill="#f7f3e9" stroke="none" stroke-width="1" /></g></g></svg>